<?xml version="1.0" standalone="no"?>
<!DOCTYPE svg PUBLIC "-//W3C//DTD SVG 1.1//EN" "http://www.w3.org/Graphics/SVG/1.1/DTD/svg11.dtd" >
<svg>
<metadata>
Created by FontForge 20090622 at Sat Oct  3 13:29:37 2015
 By deploy user
(c) 2000 Borna Rayaneh
</metadata>
<defs>
<font id="BMitraBold" horiz-adv-x="0" >
  <font-face 
    font-family="B Mitra"
    font-weight="700"
    font-stretch="normal"
    units-per-em="2048"
    panose-1="0 0 7 0 0 0 0 0 0 0"
    ascent="1638"
    descent="-410"
    bbox="-196 -1043 2414 2015"
    underline-thickness="100"
    underline-position="-650"
    unicode-range="U+0020-U+FEFC"
  />
<missing-glyph horiz-adv-x="1024" 
d="M128 0v1388h768v-1388h-768zM256 128h512v1132h-512v-1132z" />
    <glyph glyph-name="uFC60" unicode="&#x651;&#x64e;" arabic-form="isolated" 
d="M421 1467q0 -128 -78 -128q-49 0 -62 58q-21 -101 -91 -101q-56 0 -72 62q-7 27 -5 108q9 3 48 20q5 -112 34 -112q36 0 46 56q2 38 5 76l50 14q6 -101 40 -101q27 0 31 45q-1 11 -2 85l47 15q9 -57 9 -97zM418 1663l-312 -125v79l312 128v-82z" />
    <glyph glyph-name="uFC61" unicode="&#x651;&#x64f;" arabic-form="isolated" 
d="M430 1478q0 -128 -78 -128q-49 0 -62 58q-21 -101 -91 -101q-56 0 -72 62q-7 27 -5 108q9 3 48 20q5 -112 34 -112q36 0 46 56q2 38 5 76l50 14q6 -101 40 -101q27 0 31 45q-1 11 -2 85l47 15q9 -57 9 -97zM434 1688q-28 10 -75 25l-5 -6q-44 -53 -80 -81
q-60 -47 -150 -76v82q120 30 179 100q-109 58 -109 71q0 49 45 110q50 68 108 68q63 0 63 -101q0 -41 -23 -102q31 -13 47 -16v-74zM358 1858q0 19 -13 38t-31 19q-37 0 -66 -71q43 -35 95 -55q15 41 15 69z" />
    <glyph glyph-name="uE818" unicode="&#x651;&#x64b;" 
d="M399 1473q0 -128 -78 -128q-49 0 -62 58q-21 -101 -91 -101q-56 0 -72 62q-7 27 -5 108q9 3 48 20q5 -112 34 -112q36 0 46 56q2 38 5 76l50 14q6 -101 40 -101q27 0 31 45q-1 11 -2 85l47 15q9 -57 9 -97zM394 1822l-312 -125v79l312 128v-82zM394 1657l-312 -125v80
l312 127v-82z" />
    <glyph glyph-name="uFC5E" unicode="&#x651;&#x64c;" arabic-form="isolated" 
d="M415 1483q0 -128 -78 -128q-49 0 -62 58q-21 -101 -91 -101q-56 0 -72 62q-7 27 -5 108q9 3 48 20q5 -112 34 -112q36 0 46 56q2 38 5 76l50 14q6 -101 40 -101q27 0 31 45q-1 11 -2 85l47 15q9 -57 9 -97zM412 1802q2 -11 2 -22q0 -25 -8 -48l-63 20q-38 -141 -170 -193
q-2 9 1 74q2 50 -11 73q-20 -13 -65 -40l-6 88l85 44q29 -34 29 -132q49 15 93 103q-113 60 -113 85q0 52 38 104q40 57 90 57q63 0 63 -98q0 -41 -12 -98q8 -2 47 -17zM329 1906q0 49 -32 49q-35 0 -57 -65q17 -16 75 -55q14 35 14 71z" />
    <glyph glyph-name="uFC62" unicode="&#x651;&#x650;" arabic-form="isolated" 
d="M402 1691q0 -128 -78 -128q-49 0 -62 58q-21 -101 -91 -101q-56 0 -72 62q-7 27 -5 108q9 3 48 20q5 -112 34 -112q36 0 46 56q2 38 5 76l50 14q6 -101 40 -101q27 0 31 45q-1 11 -2 85l47 15q9 -57 9 -97zM414 1378l-313 -125v79l313 128v-82z" />
    <glyph glyph-name="uFC5F" unicode="&#x651;&#x64d;" arabic-form="isolated" 
d="M411 1870q0 -128 -78 -128q-49 0 -62 58q-21 -101 -91 -101q-56 0 -72 62q-7 27 -5 108q9 3 48 20q5 -112 34 -112q36 0 46 56q2 38 5 76l50 14q6 -101 40 -101q27 0 31 45q-1 11 -2 85l47 15q9 -57 9 -97zM416 1582l-313 -125v79l313 128v-82zM416 1417l-313 -125v79
l313 128v-82z" />
    <glyph glyph-name="uFEF5" unicode="&#xfedf;&#xfe82;" horiz-adv-x="1130" arabic-form="isolated" 
d="M1122 1062q6 -14 6 -18q0 -13 -68 -13q-29 -250 -75 -369q-53 -137 -175 -252l64 -122q3 -49 3 -93q0 -113 -19 -189q-174 -42 -338 -42q-79 0 -176 6q34 175 32 296q247 112 276 158q-77 112 -186 229q-127 136 -218 193l-42 -62q-54 101 -116 191l106 337
q149 -174 313 -423l245 -385q106 122 106 377q0 158 -48 317l193 125q13 8 18 9q3 -3 8 -18q37 -123 91 -252zM748 240q2 38 -42 93l-198 -120q36 -12 87 -12q104 0 153 39zM388 1522q0 -24 -67 -49q-56 -21 -90 -23q-30 -2 -95 -5q-10 -17 -19 -49q-7 -24 -15 -24
q-41 0 -41 13q0 47 15 102q13 50 34 50q14 0 41 -6.5t41 -6.5q90 0 194 53q2 -11 2 -55z" />
    <glyph glyph-name="uFEF6" unicode="&#xfee0;&#xfe82;" horiz-adv-x="1250" arabic-form="final" 
d="M1281 1h-62q-132 0 -197 107q-55 90 -52 229l9 452q-168 -570 -372 -825q-134 -49 -296 -49q-79 0 -155 13q-29 5 -29 11q0 7 29 21q200 98 406 325q-52 186 -134 320q-58 94 -166 211v-76l-173 157l44 372q215 -163 326 -338q127 -200 198 -529q252 374 252 693
q0 56 -7 111q84 49 221 149q0 -416 -19 -824q-1 -21 -1 -55q0 -138 41 -178q24 -23 95 -23h42v-274zM388 1522q0 -24 -67 -49q-56 -21 -90 -23q-30 -2 -95 -5q-10 -17 -19 -49q-7 -24 -15 -24q-41 0 -41 13q0 47 15 102q13 50 34 50q14 0 41 -6.5t41 -6.5q90 0 194 53
q2 -11 2 -55z" />
    <glyph glyph-name="uFEF7" unicode="&#xfedf;&#xfe84;" horiz-adv-x="1129" arabic-form="isolated" 
d="M1122 1062q6 -14 6 -18q0 -13 -68 -13q-29 -250 -75 -369q-53 -137 -175 -252l64 -122q3 -49 3 -93q0 -113 -19 -189q-174 -42 -338 -42q-79 0 -176 6q34 175 32 296q247 112 276 158q-77 112 -186 229q-127 136 -218 193l-42 -62q-54 101 -116 191l106 337
q149 -174 313 -423l245 -385q106 122 106 377q0 158 -48 317l193 125q13 8 18 9q3 -3 8 -18q37 -123 91 -252zM748 240q2 38 -42 93l-198 -120q36 -12 87 -12q104 0 153 39zM377 1582q1 -10 -11 -46.5t-18 -37.5q-23 -4 -83 -16q-91 -21 -214 -96q2 33 5 66q21 17 96 55
q-80 39 -80 93q0 41 62 97.5t104 56.5q61 0 115 -54l-59 -58q-38 34 -67 34q-22 0 -52 -16q-34 -18 -34 -37q0 -22 37 -48.5t61 -26.5q55 15 138 34z" />
    <glyph glyph-name="uFEF8" unicode="&#xfee0;&#xfe84;" horiz-adv-x="1252" arabic-form="final" 
d="M1281 1h-62q-132 0 -197 107q-55 90 -52 229l9 452q-168 -570 -372 -825q-134 -49 -296 -49q-79 0 -155 13q-29 5 -29 11q0 7 29 21q200 98 406 325q-52 186 -134 320q-58 94 -166 211v-76l-173 157l44 372q215 -163 326 -338q127 -200 198 -529q252 374 252 693
q0 56 -7 111q84 49 221 149q0 -416 -19 -824q-1 -21 -1 -55q0 -138 41 -178q24 -23 95 -23h42v-274zM367 1532q1 -10 -11 -46.5t-18 -37.5q-23 -4 -83 -16q-92 -21 -214 -96q1 33 5 66q21 17 96 55q-80 38 -80 93q0 42 61.5 98t104.5 56q61 0 115 -54l-59 -58q-38 34 -67 34
q-22 0 -52 -16q-34 -18 -34 -37q0 -22 37 -48.5t61 -26.5q13 0 64 15q56 17 74 19z" />
    <glyph glyph-name="uFEF9" unicode="&#xfedf;&#xfe88;" horiz-adv-x="1129" arabic-form="isolated" 
d="M1122 1062q6 -14 6 -18q0 -13 -68 -13q-29 -250 -75 -369q-53 -137 -175 -252l64 -122q3 -49 3 -93q0 -113 -19 -189q-174 -42 -338 -42q-79 0 -176 6q34 175 32 296q247 112 276 158q-77 112 -186 229q-127 136 -218 193l-42 -62q-54 101 -116 191l106 337
q149 -174 313 -423l245 -385q106 122 106 377q0 158 -48 317l193 125q13 8 18 9q3 -3 8 -18q37 -123 91 -252zM748 240q2 38 -42 93l-198 -120q36 -12 87 -12q104 0 153 39zM567 -322q1 -10 -11 -46.5t-18 -37.5q-35 -7 -82 -15q-103 -28 -215 -97q2 33 5 66q24 19 96 55
q-80 39 -80 93q0 42 61.5 98t104.5 56q59 0 115 -54l-59 -58q-38 34 -67 34q-22 0 -52 -16q-34 -18 -34 -37q0 -22 37 -48.5t61 -26.5q58 22 138 34z" />
    <glyph glyph-name="uFEFA" unicode="&#xfee0;&#xfe88;" horiz-adv-x="1252" arabic-form="final" 
d="M1281 1h-62q-132 0 -197 107q-55 90 -52 229l9 452q-168 -570 -372 -825q-134 -49 -296 -49q-79 0 -155 13q-29 5 -29 11q0 7 29 21q200 98 406 325q-52 186 -134 320q-58 94 -166 211v-76l-173 157l44 372q215 -163 326 -338q127 -200 198 -529q252 374 252 693
q0 56 -7 111q84 49 221 149q0 -416 -19 -824q-1 -21 -1 -55q0 -138 41 -178q24 -23 95 -23h42v-274zM567 -322q1 -10 -11 -46.5t-18 -37.5q-35 -7 -82 -15q-103 -28 -215 -97q2 33 5 66q24 19 96 55q-80 39 -80 93q0 42 61.5 98t104.5 56q59 0 115 -54l-59 -58
q-38 34 -67 34q-22 0 -52 -16q-34 -18 -34 -37q0 -22 37 -48.5t61 -26.5q58 22 138 34z" />
    <glyph glyph-name="uFEFB" unicode="&#xfedf;&#xfe8e;" horiz-adv-x="1129" arabic-form="isolated" 
d="M1122 1062q6 -14 6 -18q0 -13 -68 -13q-29 -250 -75 -369q-53 -137 -175 -252l64 -122q3 -49 3 -93q0 -113 -19 -189q-174 -42 -338 -42q-79 0 -176 6q34 175 32 296q247 112 276 158q-77 112 -186 229q-127 136 -218 193l-42 -62q-54 101 -116 191l106 337
q149 -174 313 -423l245 -385q106 122 106 377q0 158 -48 317l193 125q13 8 18 9q3 -3 8 -18q37 -123 91 -252zM748 240q2 38 -42 93l-198 -120q36 -12 87 -12q104 0 153 39z" />
    <glyph glyph-name="uFEFC" unicode="&#xfee0;&#xfe8e;" horiz-adv-x="1252" arabic-form="final" 
d="M1281 1h-62q-132 0 -197 107q-55 90 -52 229l9 452q-168 -570 -372 -825q-134 -49 -296 -49q-79 0 -155 13q-29 5 -29 11q0 7 29 21q200 98 406 325q-52 186 -134 320q-58 94 -166 211v-76l-173 157l44 372q215 -163 326 -338q127 -200 198 -529q252 374 252 693
q0 56 -7 111q84 49 221 149q0 -416 -19 -824q-1 -21 -1 -55q0 -138 41 -178q24 -23 95 -23h42v-274z" />
    <glyph glyph-name="uFDF2" unicode="&#xfedf;&#xfee0;&#xfeea;" horiz-adv-x="1682" arabic-form="isolated" 
d="M1255 1220q0 -12 -20.5 -42.5t-31.5 -30.5q-15 112 -49 193l79 65q22 -84 22 -185zM1407 1179q8 -201 -101 -201q-45 0 -72 50q-46 -92 -110 -92q-86 0 -86 174h68q0 -84 34 -84q56 0 56 96h66q0 -66 42 -66q41 0 41 123h62zM1680 386q0 -128 -72 -244
q-87 -140 -228 -140q-146 0 -212 174q-121 -204 -302 -204q-200 0 -232 308q-33 -57 -54 -88q-44 -64 -66 -68q-281 0 -362 161q6 34 36 108t50 103q37 37 165 86q115 44 225 70v111l134 93q17 -59 17 -140q0 -42 -6 -125.5t-6 -125.5q0 -99 18 -146q29 -76 112 -76
q53 0 120 32q79 37 79 85q2 324 -20 432l184 104v-410q0 -100 16 -142q27 -70 112 -70q46 0 97 24q62 29 59 70q-12 162 -62 612l166 170q32 -349 32 -764zM639 340v200q-210 -21 -329 -134q26 -24 94 -44q84 -25 178 -25q28 0 57 3z" />
    <glyph glyph-name="u0622" unicode="&#x622;" horiz-adv-x="472" arabic-form="isolated" 
d="M482 1474q0 -26 -73 -53q-59 -22 -97 -25q-59 -4 -101 -5q-10 -14 -20 -52q-7 -26 -17 -26q-44 0 -44 14q0 42 11 92q16 71 42 71q15 0 44 -7t44 -7q95 0 208 57q3 -12 3 -59zM428 1328q26 -128 26 -367q0 -394 -72 -863l-101 -152l-1 376q0 524 -89 800z" />
    <glyph glyph-name="Hcircumflex" unicode="&#x622;" horiz-adv-x="606" arabic-form="final" 
d="M482 1474q0 -26 -73 -53q-59 -22 -97 -25q-59 -4 -101 -5q-10 -14 -20 -52q-7 -26 -17 -26q-44 0 -44 14q0 42 11 92q16 71 42 71q15 0 44 -7t44 -7q95 0 208 57q3 -12 3 -59zM634 1h-61q-191 0 -249 158q-39 107 -52 477q-6 183 -15 254q-17 138 -64 245l183 192
q46 -73 57 -225q4 -55 4 -233v-295q0 -132 19 -192q34 -107 136 -107h42v-274z" />
    <glyph glyph-name="u0623" unicode="&#x623;" horiz-adv-x="476" arabic-form="isolated" 
d="M481 1499q2 -11 -10.5 -50t-20.5 -40q-47 -6 -89 -16q-98 -23 -230 -104q2 35 5 70q25 21 104 59q-86 44 -86 100q0 45 66 105.5t112 60.5q62 0 124 -58l-64 -62q-40 36 -72 36q-23 0 -56 -17q-36 -19 -36 -40q0 -24 40 -52.5t65 -28.5q49 15 148 37zM438 1328
q26 -128 26 -367q0 -394 -72 -863l-101 -152l-1 376q0 524 -89 800z" />
    <glyph glyph-name="uFE84" unicode="&#x623;" horiz-adv-x="626" arabic-form="final" 
d="M481 1499q2 -11 -10.5 -50t-20.5 -40q-47 -6 -89 -16q-98 -23 -230 -104q2 35 5 70q25 21 104 59q-86 44 -86 100q0 45 66 105.5t112 60.5q62 0 124 -58l-64 -62q-40 36 -72 36q-23 0 -56 -17q-36 -19 -36 -40q0 -24 40 -52.5t65 -28.5q49 15 148 37zM654 1h-61
q-191 0 -249 158q-39 108 -52 477q-6 185 -15 254q-17 136 -64 245l183 192q47 -75 58 -225q3 -41 3 -233v-295q0 -132 19 -192q34 -107 136 -107h42v-274z" />
    <glyph glyph-name="u0624" unicode="&#x624;" horiz-adv-x="765" arabic-form="isolated" 
d="M597 967q1 -11 -11.5 -50t-19.5 -40q-45 -6 -88 -16q-98 -23 -231 -104q0 34 5 70q30 24 104 59q-86 43 -86 100q0 45 66 105.5t112 60.5q63 0 124 -58l-64 -62q-40 36 -72 36q-23 0 -56 -17q-36 -19 -36 -40q0 -23 40 -52t65 -29q3 1 50 15q54 16 98 22zM762 137
q0 -354 -303 -711q-84 0 -201 38q-113 36 -186 85q210 86 338 186q150 117 244 294q-84 -31 -174 -31q-166 0 -279 97q0 225 97 381q65 104 149 150q119 0 207 -109q108 -133 108 -380zM612 239q-28 61 -74 110q-57 61 -112 61q-28 0 -61 -50q-28 -42 -35 -76q11 -33 79 -52
q50 -14 99 -14q63 0 104 21z" />
    <glyph glyph-name="uFE86" unicode="&#x624;" horiz-adv-x="850" arabic-form="final" 
d="M881 1h-129q-42 -281 -293 -575q-84 0 -201 38q-113 36 -186 85q237 96 364 202q114 95 196 250q-330 0 -431 94q0 225 97 381q65 104 149 150q99 0 180 -79q98 -95 125 -272h129v-274zM612 239q-28 61 -74 110q-57 61 -112 61q-28 0 -61 -50q-28 -42 -35 -76
q11 -33 79 -52q50 -14 99 -14q63 0 104 21zM597 967q1 -11 -11.5 -50t-19.5 -40q-45 -6 -88 -16q-98 -23 -231 -104q0 34 5 70q30 24 104 59q-86 43 -86 100q0 45 66 105.5t112 60.5q63 0 124 -58l-64 -62q-40 36 -72 36q-23 0 -56 -17q-36 -19 -36 -40q0 -23 40 -52t65 -29
q3 1 50 15q54 16 98 22z" />
    <glyph glyph-name="u0625" unicode="&#x625;" horiz-adv-x="472" arabic-form="isolated" 
d="M428 1328q26 -128 26 -367q0 -394 -72 -863l-101 -152l-1 376q0 524 -89 800zM491 -331q2 -11 -10.5 -50t-20.5 -40q-46 -9 -89 -16q-109 -30 -230 -104q0 35 5 70q25 20 104 59q-86 44 -86 100q0 45 66 105.5t112 60.5q64 0 124 -58l-64 -62q-39 36 -72 36
q-23 0 -56 -17q-36 -19 -36 -40q0 -24 40 -52.5t65 -28.5q49 15 148 37z" />
    <glyph glyph-name="uFE88" unicode="&#x625;" horiz-adv-x="614" arabic-form="final" 
d="M644 1h-61q-191 0 -249 158q-39 108 -52 477q-6 185 -15 254q-17 136 -64 245l183 192q46 -73 57 -225q4 -55 4 -233v-295q0 -132 19 -192q34 -107 136 -107h42v-274zM601 -261q2 -11 -10.5 -50t-20.5 -40q-46 -9 -89 -16q-109 -30 -230 -104q2 35 5 70q28 23 104 59
q-86 43 -86 100q0 45 66 105.5t112 60.5q64 0 124 -58l-64 -62q-39 36 -72 36q-23 0 -56 -17q-36 -19 -36 -40q0 -23 40 -52t65 -29q13 0 70.5 17.5t77.5 19.5z" />
    <glyph glyph-name="u0626" unicode="&#x626;" horiz-adv-x="1460" arabic-form="isolated" 
d="M1464 765l-121 -267q-57 21 -107 21q-168 0 -270 -243q5 -36 113 -67l196 -56q105 -41 105 -101q0 -141 -85 -370q-366 -218 -751 -218q-178 0 -280 81q-111 89 -111 263q0 111 54 268q45 132 105 233q51 4 75 -36q-80 -149 -80 -295q0 -242 317 -242q131 0 326 46
q210 50 310 113q-84 59 -256 97q-140 31 -184 97q0 54 41 200q143 510 447 510q74 0 156 -34zM535 608q2 -10 -9.5 -46.5t-19.5 -37.5l-82 -15q-102 -28 -215 -97q2 33 5 66q26 21 96 55q-80 39 -80 93q0 42 61.5 98t104.5 56q58 0 115 -54l-59 -58q-38 34 -67 34
q-22 0 -52 -16q-34 -18 -34 -37q0 -22 37 -48.5t61 -26.5q56 15 138 34z" />
    <glyph glyph-name="uFE8A" unicode="&#x626;" horiz-adv-x="1375" arabic-form="final" 
d="M1406 1h-59q-44 0 -130 25.5t-131 25.5q-78 0 -108 -56q32 -24 188 -72q33 -10 73 -33q53 -30 53 -54q0 -52 -32 -147q-30 -91 -61 -138q-411 -129 -676 -129q-111 0 -216 52q-156 77 -156 234q0 228 180 490q42 0 64 -32q-30 -52 -55 -134q-26 -86 -26 -142
q0 -202 333 -202q278 0 527 39q-53 41 -186 82q-109 34 -128 76q37 175 82 260q77 146 208 146q32 0 96 -8.5t96 -8.5h64v-274zM535 478q2 -10 -9.5 -46.5t-19.5 -37.5q-23 -4 -82 -16q-91 -21 -215 -96q2 33 5 66q23 19 96 55q-80 39 -80 93q0 41 62 97.5t104 56.5
q60 0 115 -54l-59 -58q-38 34 -67 34q-22 0 -52 -16q-34 -18 -34 -37q0 -21 39 -49q36 -26 59 -26q45 14 138 34z" />
    <glyph glyph-name="uFE8B" unicode="&#x626;" horiz-adv-x="498" arabic-form="initial" 
d="M446 430q-35 -212 -96 -288q-113 -141 -316 -141h-64v274h104q217 0 217 65q0 45 -113 198l154 210q114 -152 114 -318zM471 1123q1 -11 -11.5 -50t-19.5 -40q-46 -9 -89 -16q-110 -30 -230 -104q2 35 5 70q25 21 104 59q-86 44 -86 100q0 45 66 105.5t112 60.5
q63 0 124 -58l-64 -62q-38 36 -72 36q-23 0 -56 -17q-36 -19 -36 -40q0 -23 40 -52t65 -29q3 1 50 15q54 16 98 22z" />
    <glyph glyph-name="uFE8C" unicode="&#x626;" horiz-adv-x="549" arabic-form="medial" 
d="M393 967q1 -11 -11.5 -50t-19.5 -40q-46 -9 -89 -16q-109 -30 -230 -104q0 34 5 70q30 24 104 59q-86 43 -86 100q0 45 66 105.5t112 60.5q62 0 124 -58l-64 -62q-40 36 -72 36q-23 0 -56 -17q-36 -19 -36 -40q0 -23 40 -52t65 -29q3 1 50 15q54 16 98 22zM580 1h-71
q-81 0 -151 71q-65 66 -81 149q-12 -77 -85 -147q-76 -73 -152 -73h-70v274h60q101 0 159 90q47 73 47 165h85q0 -107 45 -175q52 -80 154 -80h60v-274z" />
    <glyph glyph-name="u0627" unicode="&#x627;" horiz-adv-x="414" arabic-form="isolated" 
d="M388 1328q26 -128 26 -367q0 -394 -72 -863l-101 -152l-1 376q0 524 -89 800z" />
    <glyph glyph-name="uFE8E" unicode="&#x627;" horiz-adv-x="564" arabic-form="final" 
d="M594 1h-61q-191 0 -249 158q-39 107 -52 477q-6 183 -15 254q-17 138 -64 245l183 192q46 -73 57 -225q4 -55 4 -233v-295q0 -132 19 -192q34 -107 136 -107h42v-274z" />
    <glyph glyph-name="u0628" unicode="&#x628;" horiz-adv-x="1593" arabic-form="isolated" 
d="M1592 472q0 -47 -57 -169t-93 -151q-44 -35 -275 -88q-275 -63 -509 -63q-314 0 -432 123q-75 78 -75 231q0 208 119 392q5 1 11 1q44 0 61 -34q-61 -144 -61 -220q0 -221 476 -221q432 0 677 103q-42 109 -110 200l152 206q46 -57 83 -165q33 -96 33 -145zM1001 -320
l-161 -152l-158 158l164 150z" />
    <glyph glyph-name="uFE90" unicode="&#x628;" horiz-adv-x="1698" arabic-form="final" 
d="M1729 1h-79q-102 0 -169 56q-72 59 -75 159q-292 -215 -762 -215q-225 0 -340 63q-153 84 -153 289q0 227 120 395q50 6 71 -34q-61 -142 -61 -227q0 -112 137 -168q110 -45 282 -45q173 0 343 30q223 39 319 114q60 46 92 139q12 8 40 1q27 -7 39 -21q-23 -72 -23 -125
q0 -137 158 -137h61v-274zM1001 -320l-161 -152l-158 158l164 150z" />
    <glyph glyph-name="uFE91" unicode="&#x628;" horiz-adv-x="450" arabic-form="initial" 
d="M446 430q-35 -212 -96 -288q-113 -141 -316 -141h-64v274h104q217 0 217 65q0 45 -113 198l154 210q114 -152 114 -318zM437 -320l-161 -152l-158 158l164 150z" />
    <glyph glyph-name="uFE92" unicode="&#x628;" horiz-adv-x="549" arabic-form="medial" 
d="M580 1h-71q-81 0 -151 71q-65 66 -81 149q-12 -77 -85 -147q-76 -73 -152 -73h-70v274h60q101 0 159 90q47 73 47 165h85q0 -107 45 -175q52 -80 154 -80h60v-274zM401 -320l-161 -152l-158 158l164 150z" />
    <glyph glyph-name="u067E" unicode="&#x67e;" horiz-adv-x="1593" arabic-form="isolated" 
d="M1592 472q0 -47 -57 -169t-93 -151q-44 -35 -275 -88q-275 -63 -509 -63q-314 0 -432 123q-75 78 -75 231q0 208 119 392q5 1 11 1q44 0 61 -34q-61 -144 -61 -220q0 -221 476 -221q432 0 677 103q-42 109 -110 200l152 206q46 -57 83 -165q33 -96 33 -145zM1082 -241
l-127 -120l-126 127l132 117zM801 -239l-129 -121l-124 127l130 117zM937 -468l-127 -120l-126 125l132 118z" />
    <glyph glyph-name="uFB57" unicode="&#x67e;" horiz-adv-x="1698" arabic-form="final" 
d="M1729 1h-79q-102 0 -169 56q-72 59 -75 159q-292 -215 -762 -215q-225 0 -340 63q-153 84 -153 289q0 227 120 395q50 6 71 -34q-61 -142 -61 -227q0 -112 137 -168q110 -45 282 -45q173 0 343 30q223 39 319 114q60 46 92 139q12 8 40 1q27 -7 39 -21q-23 -72 -23 -125
q0 -137 158 -137h61v-274zM1082 -241l-127 -120l-126 127l132 117zM801 -239l-129 -121l-124 127l130 117zM937 -468l-127 -120l-126 125l132 118z" />
    <glyph glyph-name="uFB58" unicode="&#x67e;" horiz-adv-x="570" arabic-form="initial" 
d="M446 430q-35 -212 -96 -288q-113 -141 -316 -141h-64v274h104q217 0 217 65q0 45 -113 198l154 210q114 -152 114 -318zM563 -226l-127 -120l-126 127l132 117zM282 -224l-129 -121l-124 127l130 117zM418 -453l-127 -120l-126 125l132 118z" />
    <glyph glyph-name="uFB59" unicode="&#x67e;" horiz-adv-x="549" arabic-form="medial" 
d="M580 1h-71q-81 0 -151 71q-65 66 -81 149q-12 -77 -85 -147q-76 -73 -152 -73h-70v274h60q101 0 159 90q47 73 47 165h85q0 -107 45 -175q52 -80 154 -80h60v-274zM543 -226l-127 -120l-126 127l132 117zM262 -224l-129 -121l-124 127l130 117zM398 -453l-127 -120
l-126 125l132 118z" />
    <glyph glyph-name="u062A" unicode="&#x62a;" horiz-adv-x="1593" arabic-form="isolated" 
d="M1592 472q0 -47 -57 -169t-93 -151q-44 -35 -275 -88q-275 -63 -509 -63q-314 0 -432 123q-75 78 -75 231q0 208 119 392q5 1 11 1q44 0 61 -34q-61 -144 -61 -220q0 -221 476 -221q432 0 677 103q-42 109 -110 200l152 206q46 -57 83 -165q33 -96 33 -145zM1218 907
l-148 -139l-145 146l152 136zM852 888l-148 -140l-145 147l151 135z" />
    <glyph glyph-name="uFE96" unicode="&#x62a;" horiz-adv-x="1698" arabic-form="final" 
d="M1729 1h-79q-102 0 -169 56q-72 59 -75 159q-292 -215 -762 -215q-225 0 -340 63q-153 84 -153 289q0 227 120 395q50 6 71 -34q-61 -142 -61 -227q0 -112 137 -168q110 -45 282 -45q173 0 343 30q223 39 319 114q60 46 92 139q12 8 40 1q27 -7 39 -21q-23 -72 -23 -125
q0 -137 158 -137h61v-274zM1218 907l-148 -139l-145 146l152 136zM852 888l-148 -140l-145 147l151 135z" />
    <glyph glyph-name="uFE97" unicode="&#x62a;" horiz-adv-x="592" arabic-form="initial" 
d="M446 430q-35 -212 -96 -288q-113 -141 -316 -141h-64v274h104q217 0 217 65q0 45 -113 198l154 210q114 -152 114 -318zM588 1036l-138 -138l-140 123l-128 -129l-147 129l138 141l140 -125l128 131z" />
    <glyph glyph-name="uFE98" unicode="&#x62a;" horiz-adv-x="550" arabic-form="medial" 
d="M540 924l-138 -138l-140 123l-128 -129l-147 129l138 141l140 -125l128 131zM580 1h-71q-81 0 -151 71q-65 66 -81 149q-12 -77 -85 -147q-76 -73 -152 -73h-70v274h60q101 0 159 90q47 73 47 165h85q0 -107 45 -175q52 -80 154 -80h60v-274z" />
    <glyph glyph-name="u062B" unicode="&#x62b;" horiz-adv-x="1593" arabic-form="isolated" 
d="M1592 472q0 -47 -57 -169t-93 -151q-44 -35 -275 -88q-275 -63 -509 -63q-314 0 -432 123q-75 78 -75 231q0 208 119 392q5 1 11 1q44 0 61 -34q-61 -144 -61 -220q0 -221 476 -221q432 0 677 103q-42 109 -110 200l152 206q46 -57 83 -165q33 -96 33 -145zM596 886
l127 120l126 -127l-132 -117zM877 884l129 121l124 -127l-130 -117zM741 1113l127 120l126 -125l-132 -118z" />
    <glyph glyph-name="uFE9A" unicode="&#x62b;" horiz-adv-x="1698" arabic-form="final" 
d="M1729 1h-79q-102 0 -169 56q-72 59 -75 159q-292 -215 -762 -215q-225 0 -340 63q-153 84 -153 289q0 227 120 395q50 6 71 -34q-61 -142 -61 -227q0 -112 137 -168q110 -45 282 -45q173 0 343 30q223 39 319 114q60 46 92 139q12 8 40 1q27 -7 39 -21q-23 -72 -23 -125
q0 -137 158 -137h61v-274zM596 886l127 120l126 -127l-132 -117zM877 884l129 121l124 -127l-130 -117zM741 1113l127 120l126 -125l-132 -118z" />
    <glyph glyph-name="uFE9B" unicode="&#x62b;" horiz-adv-x="576" arabic-form="initial" 
d="M446 430q-35 -212 -96 -288q-113 -141 -316 -141h-64v274h104q217 0 217 65q0 45 -113 198l154 210q114 -152 114 -318zM44 970l127 120l126 -127l-132 -117zM325 968l129 121l124 -127l-130 -117zM189 1197l127 120l126 -125l-132 -118z" />
    <glyph glyph-name="uFE9C" unicode="&#x62b;" horiz-adv-x="552" arabic-form="medial" 
d="M8 916l127 120l126 -127l-132 -117zM289 914l129 121l124 -127l-130 -117zM153 1143l127 120l126 -125l-132 -118zM580 1h-71q-81 0 -151 71q-65 66 -81 149q-12 -77 -85 -147q-76 -73 -152 -73h-70v274h60q101 0 159 90q47 73 47 165h85q0 -107 45 -175q52 -80 154 -80
h60v-274z" />
    <glyph glyph-name="u062C" unicode="&#x62c;" horiz-adv-x="1275" arabic-form="isolated" 
d="M1347 -376l-94 -126q-83 -28 -280 -53q-184 -23 -296 -23q-217 0 -360 97q-165 112 -165 319q0 209 191 408q151 157 325 230q-261 58 -288 58q-54 0 -119 -156q-48 0 -73 29q88 217 109 260q64 131 115 131q74 0 266 -58t296 -58h280l-148 -233q-34 2 -67 2
q-347 0 -527 -195q-127 -138 -127 -281q0 -364 652 -364q94 0 310 13zM953 0l-161 -152l-158 158l164 150z" />
    <glyph glyph-name="uFE9E" unicode="&#x62c;" horiz-adv-x="1324" arabic-form="final" 
d="M1353 1h-93q-395 0 -456 443q-200 -51 -324 -230q-95 -137 -95 -239q0 -364 628 -364q88 0 304 13l-94 -126q-83 -29 -265 -53q-172 -23 -281 -23q-217 0 -360 97q-165 112 -165 319q0 199 191 402q155 165 325 236q-261 58 -288 58q-54 0 -119 -156q-48 0 -73 29
q88 217 109 260q64 131 115 131q73 0 264.5 -58.5t297.5 -57.5l313 2l-132 -234h-247q30 -88 71 -121q68 -54 221 -54h153v-274zM869 -48l-161 -152l-158 158l164 150z" />
    <glyph glyph-name="uFE9F" unicode="&#x62c;" horiz-adv-x="1044" arabic-form="initial" 
d="M1040 371l-134 -218q-142 28 -188 28q-79 0 -318 -90t-360 -90h-70v274h153q267 0 449 48q-99 54 -242 151q-91 62 -121 62t-109 -137q-14 -2 -37.5 10t-30.5 25q155 336 250 336q62 0 202 -108q214 -164 265 -196q167 -103 291 -95zM591 -306l-161 -152l-158 158
l164 150z" />
    <glyph glyph-name="uFEA0" unicode="&#x62c;" horiz-adv-x="1310" arabic-form="medial" 
d="M1340 1h-79q-169 0 -269 101q-80 81 -139 260q-320 -226 -381 -260q-181 -101 -366 -101h-136v274h180q163 0 267 33q71 22 267 120q-381 150 -430 150q-44 0 -71 -28q-24 -24 -66 -104q-16 -7 -29 -7q-27 0 -43 27q68 177 104 244q67 126 129 126q40 0 274.5 -105
t341.5 -105q118 0 368 48l-106 -242q-131 -14 -216 -32q60 -125 232 -125h168v-274zM791 -306l-161 -152l-158 158l164 150z" />
    <glyph glyph-name="u0686" unicode="&#x686;" horiz-adv-x="1275" arabic-form="isolated" 
d="M1347 -376l-94 -126q-83 -28 -280 -53q-184 -23 -296 -23q-217 0 -360 97q-165 112 -165 319q0 209 191 408q151 157 325 230q-261 58 -288 58q-54 0 -119 -156q-48 0 -73 29q88 217 109 260q64 131 115 131q74 0 266 -58t296 -58h280l-148 -233q-34 2 -67 2
q-347 0 -527 -195q-127 -138 -127 -281q0 -364 652 -364q94 0 310 13zM1082 83l-127 -120l-126 127l132 117zM801 85l-129 -121l-124 127l130 117zM937 -144l-127 -120l-126 125l132 118z" />
    <glyph glyph-name="uFB7B" unicode="&#x686;" horiz-adv-x="1324" arabic-form="final" 
d="M1353 1h-93q-395 0 -456 443q-200 -51 -324 -230q-95 -137 -95 -239q0 -364 628 -364q88 0 304 13l-94 -126q-83 -29 -265 -53q-172 -23 -281 -23q-217 0 -360 97q-165 112 -165 319q0 199 191 402q155 165 325 236q-261 58 -288 58q-54 0 -119 -156q-48 0 -73 29
q88 217 109 260q64 131 115 131q73 0 264.5 -58.5t297.5 -57.5l313 2l-132 -234h-247q30 -88 71 -121q68 -54 221 -54h153v-274zM959 22l-121 -114l-120 121l126 111zM692 24l-123 -115l-118 121l124 111zM821 -193l-121 -114l-119 119l125 112z" />
    <glyph glyph-name="uFB7C" unicode="&#x686;" horiz-adv-x="1044" arabic-form="initial" 
d="M1040 371l-134 -218q-142 28 -188 28q-79 0 -318 -90t-360 -90h-70v274h153q267 0 449 48q-99 54 -242 151q-91 62 -121 62t-109 -137q-14 -2 -37.5 10t-30.5 25q155 336 250 336q62 0 202 -108q214 -164 265 -196q167 -103 291 -95zM772 -232l-127 -120l-126 127
l132 117zM491 -230l-129 -121l-124 127l130 117zM627 -459l-127 -120l-126 125l132 118z" />
    <glyph glyph-name="uFB7D" unicode="&#x686;" horiz-adv-x="1310" arabic-form="medial" 
d="M1340 1h-79q-169 0 -269 101q-80 81 -139 260q-320 -226 -381 -260q-181 -101 -366 -101h-136v274h180q163 0 267 33q71 22 267 120q-381 150 -430 150q-44 0 -71 -28q-24 -24 -66 -104q-16 -7 -29 -7q-27 0 -43 27q68 177 104 244q67 126 129 126q40 0 274.5 -105
t341.5 -105q118 0 368 48l-106 -242q-131 -14 -216 -32q60 -125 232 -125h168v-274zM862 -232l-127 -120l-126 127l132 117zM581 -230l-129 -121l-124 127l130 117zM717 -459l-127 -120l-126 125l132 118z" />
    <glyph glyph-name="u062D" unicode="&#x62d;" horiz-adv-x="1275" arabic-form="isolated" 
d="M1347 -376l-94 -126q-83 -28 -280 -53q-184 -23 -296 -23q-217 0 -360 97q-165 112 -165 319q0 209 191 408q151 157 325 230q-261 58 -288 58q-54 0 -119 -156q-48 0 -73 29q88 217 109 260q64 131 115 131q74 0 266 -58t296 -58h280l-148 -233q-34 2 -67 2
q-347 0 -527 -195q-127 -138 -127 -281q0 -364 652 -364q94 0 310 13z" />
    <glyph glyph-name="uFEA2" unicode="&#x62d;" horiz-adv-x="1324" arabic-form="final" 
d="M1353 1h-93q-395 0 -456 443q-200 -51 -324 -230q-95 -137 -95 -239q0 -364 628 -364q88 0 304 13l-94 -126q-83 -29 -265 -53q-172 -23 -281 -23q-217 0 -360 97q-165 112 -165 319q0 199 191 402q155 165 325 236q-261 58 -288 58q-54 0 -119 -156q-48 0 -73 29
q88 217 109 260q64 131 115 131q73 0 264.5 -58.5t297.5 -57.5l313 2l-132 -234h-247q30 -88 71 -121q68 -54 221 -54h153v-274z" />
    <glyph glyph-name="uFEA3" unicode="&#x62d;" horiz-adv-x="1044" arabic-form="initial" 
d="M1040 371l-134 -218q-142 28 -188 28q-79 0 -318 -90t-360 -90h-70v274h153q267 0 449 48q-99 54 -242 151q-91 62 -121 62t-109 -137q-14 -2 -37.5 10t-30.5 25q155 336 250 336q62 0 202 -108q214 -164 265 -196q167 -103 291 -95z" />
    <glyph glyph-name="uFEA4" unicode="&#x62d;" horiz-adv-x="1310" arabic-form="medial" 
d="M1340 1h-79q-169 0 -269 101q-80 81 -139 260q-320 -226 -381 -260q-181 -101 -366 -101h-136v274h180q163 0 267 33q71 22 267 120q-381 150 -430 150q-44 0 -71 -28q-24 -24 -66 -104q-16 -7 -29 -7q-27 0 -43 27q68 177 104 244q67 126 129 126q40 0 274.5 -105
t341.5 -105q118 0 368 48l-106 -242q-131 -14 -216 -32q60 -125 232 -125h168v-274z" />
    <glyph glyph-name="u062E" unicode="&#x62e;" horiz-adv-x="1275" arabic-form="isolated" 
d="M1347 -376l-94 -126q-83 -28 -280 -53q-184 -23 -296 -23q-217 0 -360 97q-165 112 -165 319q0 209 191 408q151 157 325 230q-261 58 -288 58q-54 0 -119 -156q-48 0 -73 29q88 217 109 260q64 131 115 131q74 0 266 -58t296 -58h280l-148 -233q-34 2 -67 2
q-347 0 -527 -195q-127 -138 -127 -281q0 -364 652 -364q94 0 310 13zM943 1092l-161 -152l-158 158l164 150z" />
    <glyph glyph-name="uFEA6" unicode="&#x62e;" horiz-adv-x="1324" arabic-form="final" 
d="M1353 1h-93q-395 0 -456 443q-200 -51 -324 -230q-95 -137 -95 -239q0 -364 628 -364q88 0 304 13l-94 -126q-83 -29 -265 -53q-172 -23 -281 -23q-217 0 -360 97q-165 112 -165 319q0 199 191 402q155 165 325 236q-261 58 -288 58q-54 0 -119 -156q-48 0 -73 29
q88 217 109 260q64 131 115 131q73 0 264.5 -58.5t297.5 -57.5l313 2l-132 -234h-247q30 -88 71 -121q68 -54 221 -54h153v-274zM943 1092l-161 -152l-158 158l164 150z" />
    <glyph glyph-name="uFEA7" unicode="&#x62e;" horiz-adv-x="1044" arabic-form="initial" 
d="M1040 371l-134 -218q-142 28 -188 28q-79 0 -318 -90t-360 -90h-70v274h153q267 0 449 48q-99 54 -242 151q-91 62 -121 62t-109 -137q-14 -2 -37.5 10t-30.5 25q155 336 250 336q62 0 202 -108q214 -164 265 -196q167 -103 291 -95zM593 1092l-161 -152l-158 158
l164 150z" />
    <glyph glyph-name="uFEA8" unicode="&#x62e;" horiz-adv-x="1310" arabic-form="medial" 
d="M1340 1h-79q-169 0 -269 101q-80 81 -139 260q-320 -226 -381 -260q-181 -101 -366 -101h-136v274h180q163 0 267 33q71 22 267 120q-381 150 -430 150q-44 0 -71 -28q-24 -24 -66 -104q-16 -7 -29 -7q-27 0 -43 27q68 177 104 244q67 126 129 126q40 0 274.5 -105
t341.5 -105q118 0 368 48l-106 -242q-131 -14 -216 -32q60 -125 232 -125h168v-274zM763 1092l-161 -152l-158 158l164 150z" />
    <glyph glyph-name="u062F" unicode="&#x62f;" horiz-adv-x="800" arabic-form="isolated" 
d="M797 436q0 -210 -59 -343q-42 -52 -182 -85q-115 -27 -206 -27q-123 0 -199 52q0 136 44 313h40q16 -45 31 -61q39 -43 119 -43q183 0 289 70q-62 252 -399 317l49 311q182 -55 317 -185q156 -150 156 -319z" />
    <glyph glyph-name="uFEAA" unicode="&#x62f;" horiz-adv-x="1016" arabic-form="final" 
d="M1046 1h-88q-137 0 -212 217q-30 -98 -75 -182q-134 -63 -287 -63q-164 0 -233 69q14 112 49 315h56q-2 -67 47 -97q40 -24 111 -22q47 1 140 15q142 21 156 51q-77 284 -188 408l156 204q56 -55 99 -228l69 -278q47 -135 126 -135h74v-274z" />
    <glyph glyph-name="u0630" unicode="&#x630;" horiz-adv-x="800" arabic-form="isolated" 
d="M797 436q0 -210 -59 -343q-42 -52 -182 -85q-115 -27 -206 -27q-123 0 -199 52q0 136 44 313h40q16 -45 31 -61q39 -43 119 -43q183 0 289 70q-62 252 -399 317l49 311q182 -55 317 -185q156 -150 156 -319zM517 1218l-161 -152l-158 158l164 150z" />
    <glyph glyph-name="uFEAC" unicode="&#x630;" horiz-adv-x="1016" arabic-form="final" 
d="M1046 1h-88q-137 0 -212 217q-30 -98 -75 -182q-134 -63 -287 -63q-164 0 -233 69q14 112 49 315h56q-2 -67 47 -97q40 -24 111 -22q47 1 140 15q142 21 156 51q-77 284 -188 408l156 204q56 -55 99 -228l69 -278q47 -135 126 -135h74v-274zM823 1212l-161 -152l-158 158
l164 150z" />
    <glyph glyph-name="u0631" unicode="&#x631;" horiz-adv-x="741" arabic-form="isolated" 
d="M738 45q0 -120 -105 -328q-101 -200 -207 -306q-69 0 -185 48t-166 97q181 83 323 193q167 129 198 233q-45 125 -185 219l138 267q74 -64 131.5 -194t57.5 -229z" />
    <glyph glyph-name="uFEAE" unicode="&#x631;" horiz-adv-x="916" arabic-form="final" 
d="M945 1h-59q-72 0 -139 50q-67 -369 -340 -618q-40 0 -145 40q-121 46 -189 101q469 224 537 429q-41 117 -203 232l136 269q127 -143 171 -176q71 -53 168 -53h63v-274z" />
    <glyph glyph-name="u0632" unicode="&#x632;" horiz-adv-x="741" arabic-form="isolated" 
d="M738 45q0 -120 -105 -328q-101 -200 -207 -306q-69 0 -185 48t-166 97q181 83 323 193q167 129 198 233q-45 125 -185 219l138 267q74 -64 131.5 -194t57.5 -229zM689 786l-161 -152l-158 158l164 150z" />
    <glyph glyph-name="uFEB0" unicode="&#x632;" horiz-adv-x="916" arabic-form="final" 
d="M945 1h-59q-72 0 -139 50q-67 -369 -340 -618q-40 0 -145 40q-121 46 -189 101q469 224 537 429q-41 117 -203 232l136 269q127 -143 171 -176q71 -53 168 -53h63v-274zM689 816l-161 -152l-158 158l164 150z" />
    <glyph glyph-name="u0698" unicode="&#x698;" horiz-adv-x="780" arabic-form="isolated" 
d="M738 45q0 -120 -105 -328q-101 -200 -207 -306q-69 0 -185 48t-166 97q181 83 323 193q167 129 198 233q-45 125 -185 219l138 267q74 -64 131.5 -194t57.5 -229zM243 711l127 120l126 -127l-132 -117zM524 709l129 121l124 -127l-130 -117zM388 938l127 120l126 -125
l-132 -118z" />
    <glyph glyph-name="uFB8B" unicode="&#x698;" horiz-adv-x="916" arabic-form="final" 
d="M945 1h-59q-72 0 -139 50q-67 -369 -340 -618q-40 0 -145 40q-121 46 -189 101q469 224 537 429q-41 117 -203 232l136 269q127 -143 171 -176q71 -53 168 -53h63v-274zM243 711l127 120l126 -127l-132 -117zM524 709l129 121l124 -127l-130 -117zM388 938l127 120
l126 -125l-132 -118z" />
    <glyph glyph-name="u0633" unicode="&#x633;" horiz-adv-x="2180" arabic-form="isolated" 
d="M2178 459q0 -38 -35 -145q-32 -97 -55 -144q-32 -64 -100 -114q-73 -53 -140 -53q-162 0 -210 198q-79 -199 -223 -199q-63 0 -137 39q2 -21 2 -45q0 -60 -13 -154q-15 -111 -36 -146q-87 -102 -238 -175q-188 -91 -401 -91q-259 0 -370 138q-71 89 -71 218
q0 186 213 494q6 2 12 2q48 0 60 -40q-112 -180 -112 -306q0 -123 101 -185q83 -51 214 -51q176 0 339 64q145 57 192 124q-44 230 -184 367l106 263q108 -153 137 -181q67 -65 161 -65q122 0 176 105q35 68 35 157h90q0 -260 158 -260q118 0 191 62q0 27 -128 212l154 202
q36 -39 72 -127q40 -97 40 -164z" />
    <glyph glyph-name="uFEB2" unicode="&#x633;" horiz-adv-x="2304" arabic-form="final" 
d="M2335 1h-86q-157 0 -203 189q-78 -188 -228 -188t-206 174q-60 -175 -219 -175q-67 0 -115 40q2 -20 2 -42q0 -63 -13 -155q-15 -109 -36 -148q-87 -102 -238 -175q-188 -91 -401 -91q-259 0 -370 138q-71 89 -71 218q0 186 213 494q6 2 12 2q48 0 60 -40
q-112 -180 -112 -306q0 -123 101 -185q83 -51 214 -51q176 0 339 64q145 57 192 124q-44 230 -184 367l106 263q108 -153 137 -181q67 -65 161 -65q108 0 160 99q36 68 36 149h90q0 -121 20 -169q34 -81 138 -81q96 0 144 97q35 70 35 152h90q0 -116 20 -165q33 -81 133 -81
h79v-272z" />
    <glyph glyph-name="uFEB3" unicode="&#x633;" horiz-adv-x="1322" arabic-form="initial" 
d="M1318 459q0 -38 -35 -145q-16 -49 -55 -144q-35 -69 -103 -117q-73 -52 -146 -52q-79 0 -139 64q-57 59 -70 140q-56 -204 -248 -204q-141 0 -222 203q-103 -203 -248 -203h-82v274h101q101 0 149 99q33 68 33 147h89q0 -247 184 -247q122 0 176 95q37 65 37 152h90
q0 -246 161 -246q119 0 190 61q0 27 -128 212l154 202q36 -38 72 -127q40 -98 40 -164zM290 192z" />
    <glyph glyph-name="uFEB4" unicode="&#x633;" horiz-adv-x="1466" arabic-form="medial" 
d="M1495 1h-86q-84 0 -152 72q-62 67 -77 154q-17 -85 -79 -150q-73 -76 -173 -76q-160 0 -204 202q-82 -201 -226 -201q-85 0 -145 69q-44 51 -63 121q-82 -191 -238 -191h-82v273h99q92 0 145 87q44 72 44 159h90q0 -246 159 -246q106 0 155 96q34 66 34 150h90
q0 -114 22 -166q34 -81 131 -81q110 0 165 97q39 69 39 152h90q0 -249 173 -249h89v-272z" />
    <glyph glyph-name="u0634" unicode="&#x634;" horiz-adv-x="2180" arabic-form="isolated" 
d="M2178 459q0 -38 -35 -145q-32 -97 -55 -144q-32 -64 -100 -114q-73 -53 -140 -53q-162 0 -210 198q-79 -199 -223 -199q-63 0 -137 39q2 -21 2 -45q0 -60 -13 -154q-15 -111 -36 -146q-87 -102 -238 -175q-188 -91 -401 -91q-259 0 -370 138q-71 89 -71 218
q0 186 213 494q6 2 12 2q48 0 60 -40q-112 -180 -112 -306q0 -123 101 -185q83 -51 214 -51q176 0 339 64q145 57 192 124q-44 230 -184 367l106 263q108 -153 137 -181q67 -65 161 -65q122 0 176 105q35 68 35 157h90q0 -260 158 -260q118 0 191 62q0 27 -128 212l154 202
q36 -39 72 -127q40 -97 40 -164zM1553 1077l127 120l126 -127l-132 -117zM1834 1075l129 121l124 -127l-130 -117zM1698 1304l127 120l126 -125l-132 -118z" />
    <glyph glyph-name="uFEB6" unicode="&#x634;" horiz-adv-x="2304" arabic-form="final" 
d="M2335 1h-86q-157 0 -203 189q-78 -188 -228 -188t-206 174q-60 -175 -219 -175q-67 0 -115 40q2 -20 2 -42q0 -63 -13 -155q-15 -109 -36 -148q-87 -102 -238 -175q-188 -91 -401 -91q-259 0 -370 138q-71 89 -71 218q0 186 213 494q6 2 12 2q48 0 60 -40
q-112 -180 -112 -306q0 -123 101 -185q83 -51 214 -51q176 0 339 64q145 57 192 124q-44 230 -184 367l106 263q108 -153 137 -181q67 -65 161 -65q108 0 160 99q36 68 36 149h90q0 -121 20 -169q34 -81 138 -81q96 0 144 97q35 70 35 152h90q0 -116 20 -165q33 -81 133 -81
h79v-272zM1569 849l127 120l126 -127l-132 -117zM1850 847l129 121l124 -127l-130 -117zM1714 1076l127 120l126 -125l-132 -118z" />
    <glyph glyph-name="uFEB7" unicode="&#x634;" horiz-adv-x="1322" arabic-form="initial" 
d="M1318 459q0 -38 -35 -145q-16 -49 -55 -144q-35 -69 -103 -117q-73 -52 -146 -52q-79 0 -139 64q-57 59 -70 140q-56 -204 -248 -204q-141 0 -222 203q-103 -203 -248 -203h-82v274h101q101 0 149 99q33 68 33 147h89q0 -247 184 -247q122 0 176 95q37 65 37 152h90
q0 -246 161 -246q119 0 190 61q0 27 -128 212l154 202q36 -38 72 -127q40 -98 40 -164zM290 192zM693 1077l127 120l126 -127l-132 -117zM974 1075l129 121l124 -127l-130 -117zM838 1304l127 120l126 -125l-132 -118z" />
    <glyph glyph-name="uFEB8" unicode="&#x634;" horiz-adv-x="1466" arabic-form="medial" 
d="M1495 1h-86q-84 0 -152 72q-62 67 -77 154q-17 -85 -79 -150q-73 -76 -173 -76q-160 0 -204 202q-82 -201 -226 -201q-85 0 -145 69q-44 51 -63 121q-82 -191 -238 -191h-82v273h99q92 0 145 87q44 72 44 159h90q0 -246 159 -246q106 0 155 96q34 66 34 150h90
q0 -114 22 -166q34 -81 131 -81q110 0 165 97q39 69 39 152h90q0 -249 173 -249h89v-272zM699 849l127 120l126 -127l-132 -117zM980 847l129 121l124 -127l-130 -117zM844 1076l127 120l126 -125l-132 -118z" />
    <glyph glyph-name="u0635" unicode="&#x635;" horiz-adv-x="2301" arabic-form="isolated" 
d="M2298 452q0 -30 -90 -133q-278 -318 -748 -318q-131 0 -182 40q2 -18 2 -40q0 -79 -19 -187q-17 -97 -30 -118q-87 -102 -238 -175q-188 -91 -401 -91q-259 0 -370 138q-71 89 -71 218q0 186 213 494q6 2 12 2q48 0 60 -40q-112 -180 -112 -306q0 -123 101 -185
q83 -51 214 -51q176 0 339 64q145 57 192 124q-44 230 -184 367l106 263q109 -152 148 -186q70 -62 174 -62q159 192 254 275q185 161 346 161q120 0 207 -90q77 -79 77 -164zM2067 375q0 65 -49.5 106t-115.5 41q-93 0 -208 -97q-79 -67 -148 -161q398 0 521 111z" />
    <glyph glyph-name="uFEBA" unicode="&#x635;" horiz-adv-x="2384" arabic-form="final" 
d="M2414 1h-57q-124 0 -217 57q-44 27 -118 101q-244 -158 -562 -158q-131 0 -182 40q2 -18 2 -40q0 -79 -19 -186q-17 -96 -30 -119q-87 -102 -238 -175q-188 -91 -401 -91q-259 0 -370 138q-71 89 -71 218q0 186 213 494q6 2 12 2q48 0 60 -40q-112 -180 -112 -306
q0 -123 101 -185q83 -51 214 -51q176 0 339 64q145 57 192 124q-44 230 -184 367l106 263q109 -152 148 -186q70 -62 174 -62q159 192 254 275q185 161 346 161q120 0 207 -90q77 -79 77 -164q0 -17 -50 -79q-41 -50 -66 -75q42 -23 190 -23h42v-274zM2067 375
q0 65 -49.5 106t-115.5 41q-93 0 -208 -97q-79 -67 -148 -161q398 0 521 111z" />
    <glyph glyph-name="uFEBB" unicode="&#x635;" horiz-adv-x="1386" arabic-form="initial" 
d="M1384 452q0 -17 -80 -115q-96 -117 -191 -178q-149 -96 -269 -128q-111 -30 -298 -30q-148 0 -219 66q-42 39 -67 125q-77 -191 -229 -191h-61v274h58q95 0 144 76q41 63 41 164h85q0 -241 207 -241q150 186 252 274q183 158 343 158q120 0 207 -90q77 -79 77 -164z
M1153 375q0 67 -48.5 107t-116.5 40q-166 0 -356 -258q398 0 521 111z" />
    <glyph glyph-name="uFEBC" unicode="&#x635;" horiz-adv-x="1470" arabic-form="medial" 
d="M1500 1h-57q-125 0 -217 57q-39 24 -118 101q-244 -158 -562 -158q-148 0 -219 66q-42 39 -67 125q-77 -191 -229 -191h-61v274h58q95 0 144 76q41 63 41 164h85q0 -241 207 -241q150 186 252 274q183 158 343 158q120 0 207 -90q77 -79 77 -164q0 -9 -35 -58
q-41 -57 -81 -96q42 -23 190 -23h42v-274zM1153 375q0 67 -48.5 107t-116.5 40q-166 0 -356 -258q398 0 521 111z" />
    <glyph glyph-name="u0636" unicode="&#x636;" horiz-adv-x="2301" arabic-form="isolated" 
d="M2298 452q0 -30 -90 -133q-278 -318 -748 -318q-131 0 -182 40q2 -18 2 -40q0 -79 -19 -187q-17 -97 -30 -118q-87 -102 -238 -175q-188 -91 -401 -91q-259 0 -370 138q-71 89 -71 218q0 186 213 494q6 2 12 2q48 0 60 -40q-112 -180 -112 -306q0 -123 101 -185
q83 -51 214 -51q176 0 339 64q145 57 192 124q-44 230 -184 367l106 263q109 -152 148 -186q70 -62 174 -62q159 192 254 275q185 161 346 161q120 0 207 -90q77 -79 77 -164zM2067 375q0 65 -49.5 106t-115.5 41q-93 0 -208 -97q-79 -67 -148 -161q398 0 521 111z
M2029 1032l-161 -152l-158 158l164 150z" />
    <glyph glyph-name="uFEBE" unicode="&#x636;" horiz-adv-x="2384" arabic-form="final" 
d="M2414 1h-57q-124 0 -217 57q-44 27 -118 101q-244 -158 -562 -158q-131 0 -182 40q2 -18 2 -40q0 -79 -19 -186q-17 -96 -30 -119q-87 -102 -238 -175q-188 -91 -401 -91q-259 0 -370 138q-71 89 -71 218q0 186 213 494q6 2 12 2q48 0 60 -40q-112 -180 -112 -306
q0 -123 101 -185q83 -51 214 -51q176 0 339 64q145 57 192 124q-44 230 -184 367l106 263q109 -152 148 -186q70 -62 174 -62q159 192 254 275q185 161 346 161q120 0 207 -90q77 -79 77 -164q0 -17 -50 -79q-41 -50 -66 -75q42 -23 190 -23h42v-274zM2067 375
q0 65 -49.5 106t-115.5 41q-93 0 -208 -97q-79 -67 -148 -161q398 0 521 111zM2039 1032l-161 -152l-158 158l164 150z" />
    <glyph glyph-name="uFEBF" unicode="&#x636;" horiz-adv-x="1386" arabic-form="initial" 
d="M1384 452q0 -17 -80 -115q-96 -117 -191 -178q-149 -96 -269 -128q-111 -30 -298 -30q-148 0 -219 66q-42 39 -67 125q-77 -191 -229 -191h-61v274h58q95 0 144 76q41 63 41 164h85q0 -241 207 -241q150 186 252 274q183 158 343 158q120 0 207 -90q77 -79 77 -164z
M1153 375q0 67 -48.5 107t-116.5 40q-166 0 -356 -258q398 0 521 111zM1139 1032l-161 -152l-158 158l164 150z" />
    <glyph glyph-name="uFEC0" unicode="&#x636;" horiz-adv-x="1470" arabic-form="medial" 
d="M1500 1h-57q-125 0 -217 57q-39 24 -118 101q-244 -158 -562 -158q-148 0 -219 66q-42 39 -67 125q-77 -191 -229 -191h-61v274h58q95 0 144 76q41 63 41 164h85q0 -241 207 -241q150 186 252 274q183 158 343 158q120 0 207 -90q77 -79 77 -164q0 -9 -35 -58
q-41 -57 -81 -96q42 -23 190 -23h42v-274zM1153 375q0 67 -48.5 107t-116.5 40q-166 0 -356 -258q398 0 521 111zM1139 1032l-161 -152l-158 158l164 150z" />
    <glyph glyph-name="u0637" unicode="&#x637;" horiz-adv-x="1354" arabic-form="isolated" 
d="M1351 462q0 -41 -84 -140q-111 -130 -277 -212q-221 -109 -507 -109q-176 0 -228 68q-35 46 -105 306h63q36 -68 114 -90q49 -14 151 -14v193q0 478 -110 732l180 160l147 -290h-74v-636q218 280 447 280q115 0 203 -87q80 -79 80 -161zM1126 377q0 67 -48.5 107
t-116.5 40q-166 0 -356 -258q398 0 521 111z" />
    <glyph glyph-name="uFEC2" unicode="&#x637;" horiz-adv-x="1438" arabic-form="final" 
d="M1468 1h-73q-165 0 -303 159q-246 -159 -609 -159q-176 0 -228 68q-35 46 -105 306h63q36 -68 114 -90q49 -14 151 -14v193q0 478 -110 732l180 160l147 -290h-74v-636q218 280 447 280q115 0 203 -87q80 -79 80 -161q0 -49 -106 -155q51 -32 147 -32h76v-274zM1126 377
q0 67 -48.5 107t-116.5 40q-166 0 -356 -258q398 0 521 111z" />
    <glyph glyph-name="uFEC3" unicode="&#x637;" horiz-adv-x="1044" arabic-form="initial" 
d="M1041 462q0 -40 -85 -140q-111 -131 -277 -212q-223 -109 -506 -109h-203v273h198v190q0 478 -110 732l180 160l147 -290h-74v-636q218 280 447 280q115 0 203 -87q80 -79 80 -161zM816 377q0 67 -48.5 107t-116.5 40q-94 0 -208 -97q-81 -69 -148 -161q398 0 521 111z
" />
    <glyph glyph-name="uFEC4" unicode="&#x637;" horiz-adv-x="1130" arabic-form="medial" 
d="M1158 1h-73q-82 0 -178 55q-83 48 -125 104q-246 -159 -609 -159h-203v274h198v189q0 478 -110 732l180 160l147 -290h-74v-636q218 280 447 280q115 0 203 -87q80 -79 80 -161q0 -49 -106 -155q51 -32 147 -32h76v-274zM816 377q0 67 -48.5 107t-116.5 40
q-94 0 -208 -97q-81 -69 -148 -161q398 0 521 111z" />
    <glyph glyph-name="u0638" unicode="&#x638;" horiz-adv-x="1354" arabic-form="isolated" 
d="M1351 462q0 -41 -84 -140q-111 -130 -277 -212q-221 -109 -507 -109q-176 0 -228 68q-35 46 -105 306h63q36 -68 114 -90q49 -14 151 -14v193q0 478 -110 732l180 160l147 -290h-74v-636q218 280 447 280q115 0 203 -87q80 -79 80 -161zM1126 377q0 67 -48.5 107
t-116.5 40q-166 0 -356 -258q398 0 521 111zM1187 1044l-161 -152l-158 158l164 150z" />
    <glyph glyph-name="uFEC6" unicode="&#x638;" horiz-adv-x="1438" arabic-form="final" 
d="M1468 1h-73q-165 0 -303 159q-246 -159 -609 -159q-176 0 -228 68q-35 46 -105 306h63q36 -68 114 -90q49 -14 151 -14v193q0 478 -110 732l180 160l147 -290h-74v-636q218 280 447 280q115 0 203 -87q80 -79 80 -161q0 -49 -106 -155q51 -32 147 -32h76v-274zM1126 377
q0 67 -48.5 107t-116.5 40q-166 0 -356 -258q398 0 521 111zM1187 1044l-161 -152l-158 158l164 150z" />
    <glyph glyph-name="uFEC7" unicode="&#x638;" horiz-adv-x="1044" arabic-form="initial" 
d="M1041 462q0 -40 -85 -140q-111 -131 -277 -212q-223 -109 -506 -109h-203v273h198v190q0 478 -110 732l180 160l147 -290h-74v-636q218 280 447 280q115 0 203 -87q80 -79 80 -161zM816 377q0 67 -48.5 107t-116.5 40q-94 0 -208 -97q-81 -69 -148 -161q398 0 521 111z
M877 1044l-161 -152l-158 158l164 150z" />
    <glyph glyph-name="uFEC8" unicode="&#x638;" horiz-adv-x="1130" arabic-form="medial" 
d="M1158 1h-73q-82 0 -178 55q-83 48 -125 104q-246 -159 -609 -159h-203v274h198v189q0 478 -110 732l180 160l147 -290h-74v-636q218 280 447 280q115 0 203 -87q80 -79 80 -161q0 -49 -106 -155q51 -32 147 -32h76v-274zM816 377q0 67 -48.5 107t-116.5 40
q-94 0 -208 -97q-81 -69 -148 -161q398 0 521 111zM877 1044l-161 -152l-158 158l164 150z" />
    <glyph glyph-name="u0639" unicode="&#x639;" horiz-adv-x="1089" arabic-form="isolated" 
d="M1164 -398l-80 -126q-218 -74 -448 -74q-204 0 -329 72q-156 91 -156 281q0 167 146 332q98 111 215 181q-90 67 -108 86q-78 82 -78 180q0 91 129 226q135 141 245 141q149 0 263 -176q14 -22 14 -27t-6 -5q-8 0 -37 11q-74 28 -160 28q-136 0 -234 -66
q18 -191 202 -244l348 86l-86 -226q-188 -13 -343 -74q-274 -108 -274 -324q0 -172 198 -247q135 -51 343 -51q113 0 236 16z" />
    <glyph glyph-name="uFECA" unicode="&#x639;" horiz-adv-x="1198" arabic-form="final" 
d="M1226 1h-73q-156 0 -254 117q-7 8 -188 243q-320 -201 -320 -418q0 -196 204 -282q145 -61 372 -61q132 0 242 18l-84 -131q-229 -71 -448 -71q-203 0 -356 99q-169 110 -169 288q0 308 470 625q-95 90 -223 154q141 207 353 207q265 0 265 -264q-68 -28 -199 -95
q153 -155 317 -155h91v-274z" />
    <glyph glyph-name="uFECB" unicode="&#x639;" horiz-adv-x="920" arabic-form="initial" 
d="M924 428l-116 -252q-197 -44 -522 -126q-195 -49 -252 -49h-64v274h149q27 0 111 9q-120 73 -120 210q0 138 148 269q136 121 244 121q171 0 280 -186q18 -31 3 -31q-8 0 -27 7q-58 21 -144 21q-183 0 -292 -83q21 -195 225 -282z" />
    <glyph glyph-name="uFECC" unicode="&#x639;" horiz-adv-x="820" arabic-form="medial" 
d="M849 1h-82q-86 0 -176 48q-118 63 -163 179q-107 -227 -393 -227h-65v274h115q169 0 238 91q-87 86 -218 153q145 207 353 207q265 0 265 -264q-67 -28 -192 -102q52 -85 229 -85h89v-274z" />
    <glyph glyph-name="u063A" unicode="&#x63a;" horiz-adv-x="1089" arabic-form="isolated" 
d="M1164 -398l-80 -126q-218 -74 -448 -74q-204 0 -329 72q-156 91 -156 281q0 167 146 332q98 111 215 181q-90 67 -108 86q-78 82 -78 180q0 91 129 226q135 141 245 141q149 0 263 -176q14 -22 14 -27t-6 -5q-8 0 -37 11q-74 28 -160 28q-136 0 -234 -66
q18 -191 202 -244l348 86l-86 -226q-188 -13 -343 -74q-274 -108 -274 -324q0 -172 198 -247q135 -51 343 -51q113 0 236 16zM841 1170l-161 -152l-158 158l164 150z" />
    <glyph glyph-name="uFECE" unicode="&#x63a;" horiz-adv-x="1198" arabic-form="final" 
d="M1226 1h-73q-156 0 -254 117q-7 8 -188 243q-320 -201 -320 -418q0 -196 204 -282q145 -61 372 -61q132 0 242 18l-84 -131q-229 -71 -448 -71q-203 0 -356 99q-169 110 -169 288q0 308 470 625q-95 90 -223 154q141 207 353 207q265 0 265 -264q-68 -28 -199 -95
q153 -155 317 -155h91v-274zM853 1104l-161 -152l-158 158l164 150z" />
    <glyph glyph-name="uFECF" unicode="&#x63a;" horiz-adv-x="920" arabic-form="initial" 
d="M924 428l-116 -252q-197 -44 -522 -126q-195 -49 -252 -49h-64v274h149q27 0 111 9q-120 73 -120 210q0 138 148 269q136 121 244 121q171 0 280 -186q18 -31 3 -31q-8 0 -27 7q-58 21 -144 21q-183 0 -292 -83q21 -195 225 -282zM633 1194l-161 -152l-158 158l164 150z
" />
    <glyph glyph-name="uFED0" unicode="&#x63a;" horiz-adv-x="820" arabic-form="medial" 
d="M849 1h-82q-86 0 -176 48q-118 63 -163 179q-107 -227 -393 -227h-65v274h115q169 0 238 91q-87 86 -218 153q145 207 353 207q265 0 265 -264q-67 -28 -192 -102q52 -85 229 -85h89v-274zM603 1104l-161 -152l-158 158l164 150z" />
    <glyph glyph-name="u0641" unicode="&#x641;" horiz-adv-x="1490" arabic-form="isolated" 
d="M1488 516q0 -143 -34 -379q-192 -136 -755 -136q-298 0 -400 42q-148 61 -148 258q0 177 123 370q47 4 60 -33q-58 -95 -58 -183q0 -132 164 -165q79 -16 386 -16q408 0 538 67v102q-75 -31 -169 -31q-155 0 -240 70q0 220 82 363q56 97 133 140q173 0 255 -156
q63 -120 63 -313zM1352 628q-71 152 -192 152q-31 0 -57 -42q-23 -38 -23 -72q0 -58 162 -58q80 0 110 20zM1345 1234l-145 -137l-142 143l147 135z" />
    <glyph glyph-name="uFED2" unicode="&#x641;" horiz-adv-x="1575" arabic-form="final" 
d="M1606 1h-68q-155 0 -306 123q-101 -71 -167 -90q-112 -33 -359 -33q-299 0 -403 42q-152 61 -152 258q0 177 123 370q47 4 60 -33q-58 -95 -58 -183q0 -132 143 -165q69 -16 337 -16q253 0 332 24q-122 110 -122 268q0 121 102 246q88 108 130 108q57 0 144 -75
q114 -98 114 -240q0 -80 -35 -172q-30 -78 -67 -123q54 -35 168 -35h84v-274zM1310 502q0 44 -35 84t-79 40q-35 0 -67 -50q-29 -46 -29 -84q0 -70 122 -130q31 14 59.5 60t28.5 80zM1355 1224l-145 -137l-142 143l147 135z" />
    <glyph glyph-name="uFED3" unicode="&#x641;" horiz-adv-x="660" arabic-form="initial" 
d="M658 516q0 -143 -34 -385q-86 -60 -262 -98q-150 -32 -282 -32h-110v274h147q300 0 417 66v102q-75 -31 -169 -31q-155 0 -240 70q0 221 81 363q56 97 134 140q173 0 255 -156q63 -120 63 -313zM522 628q-37 81 -102 122q-48 30 -90 30q-31 0 -57 -42q-23 -38 -23 -72
q0 -58 162 -58q80 0 110 20zM509 1236l-145 -137l-142 143l147 135z" />
    <glyph glyph-name="uFED4" unicode="&#x641;" horiz-adv-x="735" arabic-form="medial" 
d="M766 1h-68q-157 0 -306 123q-102 -72 -145 -90q-76 -33 -186 -33h-91v274h98q115 0 180 23q-122 110 -122 268q0 121 102 246q88 108 130 108q58 0 145 -75q113 -97 113 -240q0 -81 -35 -172q-29 -76 -67 -123q54 -35 168 -35h84v-274zM470 502q0 44 -35 84t-79 40
q-36 0 -67 -50q-29 -45 -29 -84q0 -69 122 -130q31 14 59.5 60t28.5 80zM519 1226l-145 -137l-142 143l147 135z" />
    <glyph glyph-name="u0642" unicode="&#x642;" horiz-adv-x="1310" arabic-form="isolated" 
d="M1311 116q0 -80 -15 -213q-17 -154 -39 -205q-78 -78 -248 -157q-230 -107 -450 -107q-189 0 -295 91q-113 97 -113 283q0 98 44 244q47 156 112 246q50 -3 62 -32q-73 -153 -73 -287q0 -273 319 -273q132 0 302 56q176 57 274 136v126q-80 -22 -161 -22q-172 0 -282 98
q0 158 59 298q68 160 189 232q315 -41 315 -514zM1157 242q-52 150 -197 169q-57 -41 -78 -123q49 -72 180 -72q62 0 95 26zM1268 919l-148 -139l-145 146l152 136zM902 900l-148 -140l-145 147l151 135z" />
    <glyph glyph-name="uFED6" unicode="&#x642;" horiz-adv-x="1398" arabic-form="final" 
d="M1428 1h-122q-19 -234 -49 -303q-78 -78 -248 -157q-230 -107 -450 -107q-189 0 -295 91q-113 97 -113 283q0 98 44 244q47 156 112 246q50 -3 62 -32q-73 -153 -73 -287q0 -273 319 -273q132 0 302 56q176 57 274 136v126q-80 -22 -161 -22q-172 0 -282 98q0 158 59 298
q68 160 189 232q258 -34 304 -355h128v-274zM1157 242q-52 150 -197 169q-57 -41 -78 -123q49 -72 180 -72q62 0 95 26zM1260 919l-148 -139l-145 146l152 136zM894 900l-148 -140l-145 147l151 135z" />
    <glyph glyph-name="uFED7" unicode="&#x642;" horiz-adv-x="660" arabic-form="initial" 
d="M658 516q0 -143 -34 -385q-86 -60 -262 -98q-150 -32 -282 -32h-110v274h147q300 0 417 66v102q-75 -31 -169 -31q-155 0 -240 70q0 221 81 363q56 97 134 140q173 0 255 -156q63 -120 63 -313zM522 628q-37 81 -102 122q-48 30 -90 30q-31 0 -57 -42q-23 -38 -23 -72
q0 -58 162 -58q80 0 110 20zM630 1237l-138 -138l-140 123l-128 -129l-147 129l138 141l140 -125l128 131z" />
    <glyph glyph-name="uFED8" unicode="&#x642;" horiz-adv-x="735" arabic-form="medial" 
d="M766 1h-68q-157 0 -306 123q-102 -72 -145 -90q-76 -33 -186 -33h-91v274h98q115 0 180 23q-122 110 -122 268q0 121 102 246q88 108 130 108q58 0 145 -75q113 -97 113 -240q0 -81 -35 -172q-29 -76 -67 -123q54 -35 168 -35h84v-274zM470 502q0 44 -35 84t-79 40
q-36 0 -67 -50q-29 -45 -29 -84q0 -69 122 -130q31 14 59.5 60t28.5 80zM630 1237l-138 -138l-140 123l-128 -129l-147 129l138 141l140 -125l128 131z" />
    <glyph glyph-name="u0643" unicode="&#x643;" horiz-adv-x="1631" arabic-form="isolated" 
d="M1678 1351l-114 -267q-324 -101 -589 -233q268 -87 379 -289q1 -32 1 -62q0 -168 -33 -288q-90 -131 -277 -179q-125 -32 -339 -32q-299 0 -403 42q-152 61 -152 258q0 177 123 370q47 4 60 -33q-58 -95 -58 -183q0 -132 143 -165q69 -16 337 -16q383 0 502 92
q-80 182 -395 309q0 143 34 355q158 88 387 186q264 113 394 135z" />
    <glyph glyph-name="uFEDA" unicode="&#x6a9;" horiz-adv-x="1869" arabic-form="final" 
d="M1899 1h-61q-111 0 -211 78q-55 43 -142 155t-139 153q6 -36 6 -75q0 -51 -11 -108q-89 -128 -289 -174q-126 -29 -346 -29q-299 0 -403 42q-152 61 -152 258q0 177 123 370q47 4 60 -33q-58 -95 -58 -183q0 -126 143 -161q81 -20 337 -20q236 0 345 18q98 16 167 65
q-116 194 -404 325q6 203 32 341q433 244 831 330l-120 -258q-140 -34 -362 -125q-177 -72 -256 -115q157 -59 360 -216q76 -59 187 -173q100 -103 146 -136q76 -55 159 -55h58v-274z" />
    <glyph glyph-name="uFEDB" unicode="&#x6a9;" horiz-adv-x="777" arabic-form="initial" 
d="M828 1351l-114 -267q-324 -101 -589 -233q268 -87 379 -289q1 -29 1 -57q0 -178 -43 -325q-159 -179 -431 -179h-81v274h86q151 0 193 6q98 14 173 73q-88 200 -389 321q9 213 34 355q157 88 387 186q265 113 394 135z" />
    <glyph glyph-name="uFEDC" unicode="&#x6a9;" horiz-adv-x="1014" arabic-form="medial" 
d="M1045 1h-61q-110 0 -210 78q-55 43 -142.5 155t-139.5 153q2 -11 2 -27q0 -52 -22 -152q-66 -102 -191 -157q-113 -50 -245 -50h-66v274h96q252 0 338 82q-119 200 -394 325q6 200 32 341q436 245 831 330l-120 -258q-144 -35 -362 -125q-172 -71 -256 -115
q156 -59 360 -216q79 -61 188 -173q103 -105 145 -136q76 -55 159 -55h58v-274z" />
    <glyph glyph-name="u06AF" unicode="&#x6af;" horiz-adv-x="1624" arabic-form="isolated" 
d="M1624 1366l-50 -100q-228 -32 -566 -134l28 108q106 30 204 54q233 57 384 72zM1676 1180l-104 -256q-345 -21 -638 -106q153 -47 237 -95q94 -54 168 -144q9 -59 2 -187q-7 -117 -19 -180q-90 -131 -277 -179q-125 -32 -339 -32q-299 0 -403 42q-152 61 -152 258
q0 177 123 370q47 4 60 -33q-58 -95 -58 -183q0 -132 143 -165q69 -16 337 -16q383 0 502 92q-129 189 -409 256q0 132 41 366q443 157 786 192z" />
    <glyph glyph-name="uFB93" unicode="&#x6af;" horiz-adv-x="1854" arabic-form="final" 
d="M1681 1360l-50 -100q-228 -32 -599 -137l28 108q103 28 220 55q253 59 401 74zM1885 1h-61q-107 0 -256 150l-227 231q8 -47 8 -92t-8 -86q-89 -128 -289 -174q-126 -29 -346 -29q-299 0 -403 42q-152 61 -152 258q0 177 123 370q47 4 60 -33q-58 -95 -58 -183
q0 -126 143 -161q81 -20 337 -20q231 0 339 20q92 17 164 65q-53 95 -174 168q-105 64 -227 92q16 205 42 362q471 167 825 192l-96 -240q-348 -22 -675 -117q188 -71 360 -180q60 -38 278 -227q155 -134 235 -134h58v-274z" />
    <glyph glyph-name="uFB94" unicode="&#x6af;" horiz-adv-x="805" arabic-form="initial" 
d="M789 1366l-50 -100q-228 -32 -566 -134l28 108q111 31 203 54q233 57 385 72zM841 1180l-104 -256q-345 -21 -638 -106q153 -47 237 -95q94 -54 168 -144q8 -65 0 -197q-8 -128 -22 -191q-73 -87 -203 -140q-123 -50 -244 -50h-65v274h120q236 0 328 87
q-127 194 -404 260q10 198 41 366q443 157 786 192z" />
    <glyph glyph-name="uFB95" unicode="&#x6af;" horiz-adv-x="1014" arabic-form="medial" 
d="M841 1360l-50 -100q-229 -32 -599 -137l28 108q108 29 219 55q252 59 402 74zM1045 1h-61q-105 0 -256 150l-227 231q9 -47 9 -92q0 -44 -9 -86q-154 -203 -465 -203h-66v274h96q143 0 217 19q63 16 136 65q-53 95 -174 168q-105 64 -227 92q12 202 42 362
q473 167 825 192l-96 -240q-347 -22 -675 -117q189 -73 360 -180q53 -33 278 -228q154 -133 235 -133h58v-274z" />
    <glyph glyph-name="u0644" unicode="&#x644;" horiz-adv-x="1152" arabic-form="isolated" 
d="M1143 1038h-81q13 -301 13 -709q0 -120 -1 -249q-6 -53 -31 -137q-28 -94 -53 -126q-78 -74 -196 -135q-180 -93 -358 -93q-285 0 -285 278q0 182 119 439q43 -2 70 -26q-44 -95 -44 -230q0 -196 206 -196q193 0 418 132v390q0 207 -29 430q-32 246 -83 365l182 164z" />
    <glyph glyph-name="uFEDE" unicode="&#x644;" horiz-adv-x="1205" arabic-form="final" 
d="M1235 1h-60q-94 0 -139 103q-25 -198 -76 -299q-50 -63 -165 -125q-169 -91 -359 -91q-285 0 -285 278q0 182 119 439q43 -2 70 -26q-44 -95 -44 -230q0 -196 206 -196q193 0 392 116v579q0 385 -87 582l186 195q65 -80 65 -363v-475q0 -96 15 -139q26 -74 102 -74h60
v-274z" />
    <glyph glyph-name="uFEDF" unicode="&#x644;" horiz-adv-x="383" arabic-form="initial" 
d="M386 1040h-70v-703q-22 -132 -87 -223q-80 -113 -199 -113h-60v274h66q89 0 131 63v214q0 134 -30 311q-33 195 -81 307l186 162z" />
    <glyph glyph-name="uFEE0" unicode="&#x644;" horiz-adv-x="464" arabic-form="medial" 
d="M494 1h-61q-151 0 -190 179q-44 -179 -213 -179h-60v274h46q99 0 136 41v320q0 318 -79 499l183 192q36 -58 48 -141q13 -91 13 -317v-295q0 -171 20 -228q25 -71 105 -71h52v-274z" />
    <glyph glyph-name="u0645" unicode="&#x645;" horiz-adv-x="1107" arabic-form="isolated" 
d="M1104 378q-8 -77 -82 -208q-68 -120 -124 -176q-312 108 -467 108q-76 0 -137 -21q25 -185 42 -471l-147 -174q0 320 -40 598q108 189 193 262q26 11 143 34q-22 65 -22 108q0 9 1 18q65 96 188 252q370 -13 452 -330zM954 230q-26 107 -105 179q-84 76 -190 76
q-37 0 -73 -11l44 -154q159 -21 324 -90z" />
    <glyph glyph-name="uFEE2" unicode="&#x645;" horiz-adv-x="1161" arabic-form="final" 
d="M1190 1h-55q-70 0 -151 44q4 -24 4 -48q0 -95 -55 -185q-63 -103 -152 -103q-133 0 -217 168q-69 138 -69 285q-102 0 -216 -57q50 -177 50 -409q0 -63 -5 -122l-129 -150q-2 322 -45 586q41 191 93 296q134 86 261 98l22 122q5 30 14 30q7 0 24 -14q117 -95 262 -172
q180 -96 289 -96h75v-273zM909 78q-173 62 -312 171q0 -95 43 -189q54 -117 137 -117q96 0 132 135z" />
    <glyph glyph-name="uFEE3" unicode="&#x645;" horiz-adv-x="706" arabic-form="initial" 
d="M704 254q-88 -215 -182 -284q-165 0 -329 162q-72 -131 -163 -131h-60v274h89q38 0 116 140q97 174 157 235q202 0 290 -98q82 -93 82 -298zM552 170q2 20 2 38q0 189 -202 232q-57 -39 -78 -116q78 -108 278 -154z" />
    <glyph glyph-name="uFEE4" unicode="&#x645;" horiz-adv-x="895" arabic-form="medial" 
d="M930 1h-60q-65 0 -115 46q-32 29 -79 107q-95 -174 -210 -208q-126 24 -198 97q-36 36 -80 123q-95 -165 -157 -165h-61v274h55q52 0 110 73l121 156q74 95 178 126q125 -21 204 -126l111 -155q55 -75 109 -75h72v-273zM594 250q-56 110 -218 186q-48 -43 -80 -96
q16 -64 78 -124q57 -56 124 -81q77 38 96 115z" />
    <glyph glyph-name="u0646" unicode="&#x646;" horiz-adv-x="1298" arabic-form="isolated" 
d="M1296 33q0 -124 -65 -337q-87 -102 -238 -175q-188 -91 -401 -91q-259 0 -370 138q-71 89 -71 218q0 186 213 494q6 2 12 2q48 0 60 -40q-112 -180 -112 -306q0 -123 101 -185q83 -51 214 -51q176 0 339 64q145 57 192 124q-44 230 -184 367l109 273q73 -85 134 -226
q67 -155 67 -269zM923 654l-161 -152l-158 158l164 150z" />
    <glyph glyph-name="uFEE6" unicode="&#x646;" horiz-adv-x="1440" arabic-form="final" 
d="M1470 1h-65q-53 0 -127 40q1 -13 1 -29q0 -114 -48 -316q-87 -102 -238 -175q-188 -91 -401 -91q-259 0 -370 138q-71 89 -71 218q0 186 213 494q6 2 12 2q48 0 60 -40q-112 -180 -112 -306q0 -123 101 -185q83 -51 214 -51q176 0 339 64q145 57 192 124
q-44 230 -184 367l106 263q99 -139 144 -180q69 -63 154 -63h80v-274zM923 654l-161 -152l-158 158l164 150z" />
    <glyph glyph-name="uFEE7" unicode="&#x646;" horiz-adv-x="450" arabic-form="initial" 
d="M446 430q-35 -212 -96 -288q-113 -141 -316 -141h-64v274h104q217 0 217 65q0 45 -113 198l154 210q114 -152 114 -318zM461 1044l-161 -152l-158 158l164 150z" />
    <glyph glyph-name="uFEE8" unicode="&#x646;" horiz-adv-x="549" arabic-form="medial" 
d="M580 1h-71q-81 0 -151 71q-65 66 -81 149q-12 -77 -85 -147q-76 -73 -152 -73h-70v274h60q101 0 159 90q47 73 47 165h85q0 -107 45 -175q52 -80 154 -80h60v-274zM411 944l-161 -152l-158 158l164 150z" />
    <glyph glyph-name="u0648" unicode="&#x648;" horiz-adv-x="765" arabic-form="isolated" 
d="M762 137q0 -354 -303 -711q-84 0 -201 38q-113 36 -186 85q210 86 338 186q150 117 244 294q-84 -31 -174 -31q-166 0 -279 97q0 225 97 381q65 104 149 150q119 0 207 -109q108 -133 108 -380zM612 239q-28 61 -74 110q-57 61 -112 61q-28 0 -61 -50q-28 -42 -35 -76
q11 -33 79 -52q50 -14 99 -14q63 0 104 21z" />
    <glyph glyph-name="uFEEE" unicode="&#x648;" horiz-adv-x="851" arabic-form="final" 
d="M881 1h-129q-42 -281 -293 -575q-84 0 -201 38q-113 36 -186 85q237 96 364 202q114 95 196 250q-330 0 -431 94q0 225 97 381q65 104 149 150q99 0 180 -79q98 -95 125 -272h129v-274zM612 239q-28 61 -74 110q-57 61 -112 61q-28 0 -61 -50q-28 -42 -35 -76
q11 -33 79 -52q50 -14 99 -14q63 0 104 21z" />
    <glyph glyph-name="u0647" unicode="&#x647;" horiz-adv-x="756" arabic-form="isolated" 
d="M753 394q0 -158 -61 -312q-96 -82 -246 -82q-181 0 -295 117q0 247 143 449l-58 24l82 247q181 -49 271 -114q164 -118 164 -329zM654 300q0 83 -94 158q-80 64 -168 83q-84 -139 -107 -232q74 -75 200 -75q114 0 169 66z" />
    <glyph glyph-name="uFEEA" unicode="&#x647;" horiz-adv-x="943" arabic-form="final" 
d="M973 1h-81q-174 0 -237 290q-32 -118 -90 -198q-315 0 -417 141q41 153 72 240q122 109 350 194q-8 38 -34 108l119 178q53 -77 80 -264q36 -248 46 -283q38 -132 126 -132h66v-274zM646 330l-44 222q-154 -33 -288 -154q59 -73 245 -73q47 0 87 5z" />
    <glyph glyph-name="uFEEB" unicode="&#x647;" horiz-adv-x="882" arabic-form="initial" 
d="M878 484q3 -35 3 -70q0 -137 -55 -255q-38 -81 -82 -121q-204 26 -378 102q-224 -139 -335 -139h-61v274h200q-106 74 -106 151q0 133 269 225l-117 69l24 282q118 -73 238 -160q267 -194 400 -358zM776 324q-34 51 -198 184q3 -22 3 -44q0 -123 -73 -162
q151 -57 224 -76q38 31 44 98zM457 560q-31 6 -57 6q-101 0 -157 -107q45 -79 151 -111q85 53 85 130q0 38 -22 82z" />
    <glyph glyph-name="uFEEC" unicode="&#x647;" horiz-adv-x="999" arabic-form="medial" 
d="M1030 1h-51q-95 0 -177 -23q-110 -31 -144 -90q54 -116 206 -174l-88 -286q-480 169 -580 591q-62 -18 -144 -18h-82v274h196q-9 51 -9 107q0 117 37 246q47 163 124 206q258 -78 288 -651q-88 -92 -256 -129q22 -61 80 -120t119 -87q12 77 51 165q42 95 92 144
q122 119 277 119h61v-274zM484 332q-38 169 -146 230q-63 -75 -63 -221q0 -31 3 -63q131 0 206 54z" />
    <glyph glyph-name="u0629" unicode="&#x629;" horiz-adv-x="762" arabic-form="isolated" 
d="M489 1165q1 -11 -11.5 -50t-19.5 -40q-45 -6 -88 -16q-98 -23 -231 -104q0 35 5 70q31 25 104 59q-86 45 -86 100q0 45 66 105.5t112 60.5q64 0 124 -58l-64 -62q-39 36 -72 36q-23 0 -56 -17q-36 -19 -36 -40q0 -23 40 -52t65 -29q49 15 148 37zM753 394
q0 -158 -61 -312q-96 -82 -246 -82q-181 0 -295 117q0 247 143 449l-58 24l82 247q181 -49 271 -114q164 -118 164 -329zM654 300q0 83 -94 158q-80 64 -168 83q-84 -139 -107 -232q74 -75 200 -75q114 0 169 66z" />
    <glyph glyph-name="uFE94" unicode="&#x6c0;" horiz-adv-x="942" arabic-form="final" 
d="M549 1159q2 -12 -10.5 -51t-20.5 -39q-25 -4 -89 -17q-98 -22 -230 -103q2 35 5 70q25 21 104 59q-86 42 -86 100q0 45 66 105.5t112 60.5q63 0 124 -58l-64 -62q-41 36 -72 36q-23 0 -56 -17q-36 -19 -36 -40q0 -24 40 -52.5t65 -28.5q13 0 70.5 17.5t77.5 19.5zM973 1
h-81q-174 0 -237 290q-32 -118 -90 -198q-315 0 -417 141q41 153 72 240q122 109 350 194q-8 38 -34 108l119 178q53 -77 80 -264q36 -248 46 -283q38 -132 126 -132h66v-274zM646 330l-44 222q-154 -33 -288 -154q59 -73 245 -73q47 0 87 5z" />
    <glyph glyph-name="u064A" unicode="&#x64a;" horiz-adv-x="1460" arabic-form="isolated" 
d="M1464 765l-121 -267q-57 21 -107 21q-168 0 -270 -243q5 -36 113 -67l196 -56q105 -41 105 -101q0 -141 -85 -370q-366 -218 -751 -218q-178 0 -280 81q-111 89 -111 263q0 111 54 268q45 132 105 233q51 4 75 -36q-80 -149 -80 -295q0 -242 317 -242q131 0 326 46
q210 50 310 113q-84 59 -256 97q-140 31 -184 97q0 54 41 200q143 510 447 510q74 0 156 -34z" />
    <glyph glyph-name="uFEF2" unicode="&#x6cc;" horiz-adv-x="1375" arabic-form="final" 
d="M1406 1h-59q-44 0 -130 25.5t-131 25.5q-78 0 -108 -56q32 -24 188 -72q33 -10 73 -33q53 -30 53 -54q0 -52 -32 -147q-30 -91 -61 -138q-411 -129 -676 -129q-111 0 -216 52q-156 77 -156 234q0 228 180 490q42 0 64 -32q-30 -52 -55 -134q-26 -86 -26 -142
q0 -202 333 -202q278 0 527 39q-53 41 -186 82q-109 34 -128 76q37 175 82 260q77 146 208 146q32 0 96 -8.5t96 -8.5h64v-274z" />
    <glyph glyph-name="uFEF3" unicode="&#x6cc;" horiz-adv-x="585" arabic-form="initial" 
d="M446 430q-35 -212 -96 -288q-113 -141 -316 -141h-64v274h104q217 0 217 65q0 45 -113 198l154 210q114 -152 114 -318zM585 -268l-138 -138l-140 123l-128 -129l-147 129l138 141l140 -125l128 131z" />
    <glyph glyph-name="uFEF4" unicode="&#x6cc;" horiz-adv-x="549" arabic-form="medial" 
d="M545 -268l-138 -138l-140 123l-128 -129l-147 129l138 141l140 -125l128 131zM580 1h-71q-81 0 -151 71q-65 66 -81 149q-12 -77 -85 -147q-76 -73 -152 -73h-70v274h60q101 0 159 90q47 73 47 165h85q0 -107 45 -175q52 -80 154 -80h60v-274z" />
    <glyph glyph-name="u0649" unicode="&#x649;" horiz-adv-x="1460" arabic-form="isolated" 
d="M1464 765l-121 -267q-57 21 -107 21q-168 0 -270 -243q5 -36 113 -67l196 -56q105 -41 105 -101q0 -141 -85 -370q-366 -218 -751 -218q-178 0 -280 81q-111 89 -111 263q0 111 54 268q45 132 105 233q51 4 75 -36q-80 -149 -80 -295q0 -242 317 -242q131 0 326 46
q210 50 310 113q-84 59 -256 97q-140 31 -184 97q0 54 41 200q143 510 447 510q74 0 156 -34z" />
    <glyph glyph-name="uFEF0" unicode="&#x649;" horiz-adv-x="1375" arabic-form="final" 
d="M1406 1h-59q-44 0 -130 25.5t-131 25.5q-78 0 -108 -56q32 -24 188 -72q33 -10 73 -33q53 -30 53 -54q0 -52 -32 -147q-30 -91 -61 -138q-411 -129 -676 -129q-111 0 -216 52q-156 77 -156 234q0 228 180 490q42 0 64 -32q-30 -52 -55 -134q-26 -86 -26 -142
q0 -202 333 -202q278 0 527 39q-53 41 -186 82q-109 34 -128 76q37 175 82 260q77 146 208 146q32 0 96 -8.5t96 -8.5h64v-274z" />
    <glyph glyph-name=".notdef" horiz-adv-x="1024" 
d="M128 0v1388h768v-1388h-768zM256 128h512v1132h-512v-1132z" />
    <glyph glyph-name=".null" 
 />
    <glyph glyph-name="nonmarkingreturn" horiz-adv-x="465" 
 />
    <glyph glyph-name="space" unicode=" " horiz-adv-x="465" 
 />
    <glyph glyph-name="exclam" unicode="!" horiz-adv-x="441" 
d="M436 1282q-88 -737 -88 -962l-128 -38q-16 82 -40 360q-28 325 -28 530zM440 21q0 -59 -42.5 -101.5t-101.5 -42.5t-101.5 42.5t-42.5 101.5t42.5 101.5t101.5 42.5t101.5 -42.5t42.5 -101.5z" />
    <glyph glyph-name="percent" unicode="%" horiz-adv-x="1110" 
d="M550 1062q-118 -127 -204 -268q-117 110 -270 196q129 144 204 280q119 -124 270 -208zM1032 1345l-849 -1684h-104l849 1684h104zM1030 -3q-122 -132 -204 -268q-117 110 -270 196q132 148 204 280q116 -122 270 -208z" />
    <glyph glyph-name="parenleft" unicode="(" horiz-adv-x="592" 
d="M150 529q0 531 306 976h133q-211 -366 -211 -976q0 -293 80 -599q56 -216 130 -366h-133q-305 508 -305 965z" />
    <glyph glyph-name="parenright" unicode=")" horiz-adv-x="592" 
d="M590 541q0 -530 -306 -976h-133q211 367 211 976q0 295 -80 599q-56 213 -130 366h133q305 -508 305 -965z" />
    <glyph glyph-name="asterisk" unicode="*" horiz-adv-x="1048" 
d="M919 633q-65 -65 -211 -103q-10 -3 -14.5 1.5t-1.5 14.5q36 143 101 208q25 25 59 25q35 0 62.5 -27.5t27.5 -62.5q0 -33 -23 -56zM686 802q0 -92 -77 -222q-11 -18 -22 0q-76 127 -76 219q0 84 88 84q35 0 61 -23t26 -58zM1045 435q0 -35 -23 -61t-58 -26q-92 0 -222 77
q-18 11 0 22q127 76 219 76q84 0 84 -88zM504 546q3 -10 -1 -14t-15 -2q-141 33 -208 101q-25 25 -25 59q0 36 27.5 63t63.5 27q32 0 55 -23q67 -67 103 -211zM699 435q0 -41 -30 -71.5t-71 -30.5t-70.5 30.5t-29.5 71.5q0 42 29 70.5t71 28.5q41 0 71 -29t30 -70zM916 241
q25 -25 25 -59q0 -36 -27 -63t-63 -27q-33 0 -56 23q-65 66 -103 211q-3 10 1.5 14.5t14.5 1.5q143 -36 208 -101zM685 73q0 -84 -88 -84q-35 0 -61 23t-26 58q0 93 77 222q11 18 22 0q76 -127 76 -219zM454 425q-127 -76 -219 -76q-84 0 -84 88q0 35 23 61t58 26
q93 0 222 -77q18 -11 0 -22zM504 326q-33 -140 -101 -208q-25 -25 -59 -25q-35 0 -62.5 27.5t-27.5 62.5q0 33 23 56q67 68 211 103q10 2 14 -2t2 -14z" />
    <glyph glyph-name="plus" unicode="+" horiz-adv-x="966" 
d="M893 350h-368v-364h-94v364h-364v95h366v367h93v-367h367v-95z" />
    <glyph glyph-name="comma" unicode="," horiz-adv-x="474" 
d="M157 145q0 61 49 102q46 39 108 39q84 0 127 -75q36 -61 36 -151q0 -122 -90 -249q-69 -98 -120 -124l-83 46q175 140 175 276q-30 -12 -61 -12q-64 0 -102.5 42t-38.5 106z" />
    <glyph glyph-name="hyphen" unicode="-" horiz-adv-x="966" 
d="M893 350h-826v95h826v-95z" />
    <glyph glyph-name="period" unicode="." horiz-adv-x="456" 
d="M453 153q0 -63 -43.5 -106.5t-106.5 -43.5t-106.5 43.5t-43.5 106.5t43.5 106.5t106.5 43.5q62 0 106 -44t44 -106z" />
    <glyph glyph-name="slash" unicode="/" horiz-adv-x="615" 
d="M538 1338l-363 -1518h-92l363 1518h92z" />
    <glyph glyph-name="zero" unicode="0" horiz-adv-x="1090" 
d="M836 551q-111 -89 -164 -152q-72 -86 -109 -197q-152 194 -353 275q192 152 281 341q121 -159 345 -267z" />
    <glyph glyph-name="zero" unicode="&#x6f0;" horiz-adv-x="1090" 
d="M836 551q-111 -89 -164 -152q-72 -86 -109 -197q-152 194 -353 275q192 152 281 341q121 -159 345 -267z" />
    <glyph glyph-name="zero" unicode="&#x660;" horiz-adv-x="1090" 
d="M836 551q-111 -89 -164 -152q-72 -86 -109 -197q-152 194 -353 275q192 152 281 341q121 -159 345 -267z" />
    <glyph glyph-name="one" unicode="1" horiz-adv-x="1090" 
d="M769 385q0 -129 -24 -335l-159 -165v283q0 460 -349 874l201 279q331 -428 331 -936z" />
    <glyph glyph-name="one" unicode="&#x6f1;" horiz-adv-x="1090" 
d="M769 385q0 -129 -24 -335l-159 -165v283q0 460 -349 874l201 279q331 -428 331 -936z" />
    <glyph glyph-name="one" unicode="&#x661;" horiz-adv-x="1090" 
d="M769 385q0 -129 -24 -335l-159 -165v283q0 460 -349 874l201 279q331 -428 331 -936z" />
    <glyph glyph-name="two" unicode="2" horiz-adv-x="1090" 
d="M1000 1213q-107 -383 -342 -383q-51 0 -109 17q66 -184 66 -459q0 -181 -25 -360l-148 -147v280q0 478 -346 880l195 285q101 -115 156 -155q93 -68 201 -68q155 0 254 224z" />
    <glyph glyph-name="two" unicode="&#x6f2;" horiz-adv-x="1090" 
d="M1000 1213q-107 -383 -342 -383q-51 0 -109 17q66 -184 66 -459q0 -181 -25 -360l-148 -147v280q0 478 -346 880l195 285q101 -115 156 -155q93 -68 201 -68q155 0 254 224z" />
    <glyph glyph-name="two" unicode="&#x662;" horiz-adv-x="1090" 
d="M1000 1213q-107 -383 -342 -383q-51 0 -109 17q66 -184 66 -459q0 -181 -25 -360l-148 -147v280q0 478 -346 880l195 285q101 -115 156 -155q93 -68 201 -68q155 0 254 224z" />
    <glyph glyph-name="three" unicode="3" horiz-adv-x="1090" 
d="M1056 1283q0 -428 -211 -428q-109 0 -152 131q-30 -158 -164 -158q-33 0 -72 10q93 -217 93 -478q0 -150 -19 -314l-158 -164v290q0 473 -348 867l192 282l116 -149q73 -78 142 -78q161 0 161 234h91q0 -92 12 -130q26 -82 109 -82q108 0 132 227z" />
    <glyph glyph-name="three" unicode="&#x6f3;" horiz-adv-x="1090" 
d="M1056 1283q0 -428 -211 -428q-109 0 -152 131q-30 -158 -164 -158q-33 0 -72 10q93 -217 93 -478q0 -150 -19 -314l-158 -164v290q0 473 -348 867l192 282l116 -149q73 -78 142 -78q161 0 161 234h91q0 -92 12 -130q26 -82 109 -82q108 0 132 227z" />
    <glyph glyph-name="three" unicode="&#x663;" horiz-adv-x="1090" 
d="M1056 1283q0 -428 -211 -428q-109 0 -152 131q-30 -158 -164 -158q-33 0 -72 10q93 -217 93 -478q0 -150 -19 -314l-158 -164v290q0 473 -348 867l192 282l116 -149q73 -78 142 -78q161 0 161 234h91q0 -92 12 -130q26 -82 109 -82q108 0 132 227z" />
    <glyph glyph-name="four" unicode="4" horiz-adv-x="1090" 
d="M959 208l-69 -282q-332 0 -747 266l321 423q-193 67 -300 170q222 335 294 407q133 132 326 132q52 0 115 -8l-117 -255q-99 20 -144 20q-74 0 -140 -57q-34 -29 -103 -116q108 -76 378 -161l-339 -420q267 -123 453 -123q36 0 72 4z" />
    <glyph glyph-name="four" unicode="&#x6f4;" horiz-adv-x="1090" 
d="M959 208l-69 -282q-332 0 -747 266l321 423q-193 67 -300 170q222 335 294 407q133 132 326 132q52 0 115 -8l-117 -255q-99 20 -144 20q-74 0 -140 -57q-34 -29 -103 -116q108 -76 378 -161l-339 -420q267 -123 453 -123q36 0 72 4z" />
    <glyph glyph-name="four" unicode="&#x664;" horiz-adv-x="1090" 
d="M959 208l-69 -282q-332 0 -747 266l321 423q-193 67 -300 170q222 335 294 407q133 132 326 132q52 0 115 -8l-117 -255q-99 20 -144 20q-74 0 -140 -57q-34 -29 -103 -116q108 -76 378 -161l-339 -420q267 -123 453 -123q36 0 72 4z" />
    <glyph glyph-name="five" unicode="5" horiz-adv-x="1090" 
d="M904 621q0 -237 -87 -369q-51 -56 -137 -99q-108 -54 -214 -54q-215 0 -297 177q0 485 327 822q168 -35 286 -169q122 -139 122 -308zM766 501q-73 252 -315 294q-126 -114 -162 -330q73 -87 204 -87q172 0 273 123z" />
    <glyph glyph-name="five" unicode="&#x6f5;" horiz-adv-x="1090" 
d="M904 621q0 -237 -87 -369q-51 -56 -137 -99q-108 -54 -214 -54q-215 0 -297 177q0 485 327 822q168 -35 286 -169q122 -139 122 -308zM766 501q-73 252 -315 294q-126 -114 -162 -330q73 -87 204 -87q172 0 273 123z" />
    <glyph glyph-name="five" unicode="&#x665;" horiz-adv-x="1090" 
d="M904 621q0 -237 -87 -369q-51 -56 -137 -99q-108 -54 -214 -54q-215 0 -297 177q0 485 327 822q168 -35 286 -169q122 -139 122 -308zM766 501q-73 252 -315 294q-126 -114 -162 -330q73 -87 204 -87q172 0 273 123z" />
    <glyph glyph-name="six" unicode="6" horiz-adv-x="1090" 
d="M1028 270l-72 -369q-181 73 -248 214q-54 114 -54 334q0 73 5 220t5 220q-102 -11 -183 -11q-266 0 -350 131q-51 80 -59 314h93q22 -73 73 -99q63 -32 219 -32q132 0 385 22q-21 -285 -21 -521q0 -184 26 -258q43 -122 181 -165z" />
    <glyph glyph-name="six" unicode="&#x6f6;" horiz-adv-x="1090" 
d="M1028 270l-72 -369q-181 73 -248 214q-54 114 -54 334q0 73 5 220t5 220q-102 -11 -183 -11q-266 0 -350 131q-51 80 -59 314h93q22 -73 73 -99q63 -32 219 -32q132 0 385 22q-21 -285 -21 -521q0 -184 26 -258q43 -122 181 -165z" />
    <glyph glyph-name="six" unicode="&#x666;" horiz-adv-x="1090" 
d="M1028 270l-72 -369q-181 73 -248 214q-54 114 -54 334q0 73 5 220t5 220q-102 -11 -183 -11q-266 0 -350 131q-51 80 -59 314h93q22 -73 73 -99q63 -32 219 -32q132 0 385 22q-21 -285 -21 -521q0 -184 26 -258q43 -122 181 -165z" />
    <glyph glyph-name="seven" unicode="7" horiz-adv-x="1090" 
d="M1055 916q-180 -151 -311 -503q-105 -282 -129 -515h-111q-18 209 -129 518q-116 323 -339 540l147 372q142 -161 250 -459q88 -241 128 -489q41 266 126 496q112 303 273 446z" />
    <glyph glyph-name="seven" unicode="&#x6f7;" horiz-adv-x="1090" 
d="M1055 916q-180 -151 -311 -503q-105 -282 -129 -515h-111q-18 209 -129 518q-116 323 -339 540l147 372q142 -161 250 -459q88 -241 128 -489q41 266 126 496q112 303 273 446z" />
    <glyph glyph-name="seven" unicode="&#x667;" horiz-adv-x="1090" 
d="M1055 916q-180 -151 -311 -503q-105 -282 -129 -515h-111q-18 209 -129 518q-116 323 -339 540l147 372q142 -161 250 -459q88 -241 128 -489q41 266 126 496q112 303 273 446z" />
    <glyph glyph-name="eight" unicode="8" horiz-adv-x="1090" 
d="M35 298q182 153 311 503q105 285 129 515h111q18 -209 129 -518q116 -323 339 -540l-147 -372q-142 161 -250 459q-88 241 -128 489q-41 -267 -126 -496q-112 -302 -273 -446z" />
    <glyph glyph-name="eight" unicode="&#x6f8;" horiz-adv-x="1090" 
d="M35 298q182 153 311 503q105 285 129 515h111q18 -209 129 -518q116 -323 339 -540l-147 -372q-142 161 -250 459q-88 241 -128 489q-41 -267 -126 -496q-112 -302 -273 -446z" />
    <glyph glyph-name="eight" unicode="&#x668;" horiz-adv-x="1090" 
d="M35 298q182 153 311 503q105 285 129 515h111q18 -209 129 -518q116 -323 339 -540l-147 -372q-142 161 -250 459q-88 241 -128 489q-41 -267 -126 -496q-112 -302 -273 -446z" />
    <glyph glyph-name="nine" unicode="9" horiz-adv-x="1090" 
d="M1002 244l-80 -346q-181 55 -246 206q-51 119 -92 544q-84 -53 -204 -53q-85 0 -179.5 64.5t-120.5 144.5q20 157 72 291q93 240 248 240q186 0 248 -128q37 -76 70 -365q38 -331 87 -432q46 -95 197 -166zM546 896q-16 79 -75 132.5t-138 53.5q-61 0 -107 -112
q67 -105 189 -105q90 0 131 31z" />
    <glyph glyph-name="nine" unicode="&#x6f9;" horiz-adv-x="1090" 
d="M1002 244l-80 -346q-181 55 -246 206q-51 119 -92 544q-84 -53 -204 -53q-85 0 -179.5 64.5t-120.5 144.5q20 157 72 291q93 240 248 240q186 0 248 -128q37 -76 70 -365q38 -331 87 -432q46 -95 197 -166zM546 896q-16 79 -75 132.5t-138 53.5q-61 0 -107 -112
q67 -105 189 -105q90 0 131 31z" />
    <glyph glyph-name="nine" unicode="&#x669;" horiz-adv-x="1090" 
d="M1002 244l-80 -346q-181 55 -246 206q-51 119 -92 544q-84 -53 -204 -53q-85 0 -179.5 64.5t-120.5 144.5q20 157 72 291q93 240 248 240q186 0 248 -128q37 -76 70 -365q38 -331 87 -432q46 -95 197 -166zM546 896q-16 79 -75 132.5t-138 53.5q-61 0 -107 -112
q67 -105 189 -105q90 0 131 31z" />
    <glyph glyph-name="colon" unicode=":" horiz-adv-x="456" 
d="M453 153q0 -63 -43.5 -106.5t-106.5 -43.5t-106.5 43.5t-43.5 106.5t43.5 106.5t106.5 43.5q62 0 106 -44t44 -106zM453 733q0 -63 -43.5 -106.5t-106.5 -43.5t-106.5 43.5t-43.5 106.5t43.5 106.5t106.5 43.5q62 0 106 -44t44 -106z" />
    <glyph glyph-name="equal" unicode="=" horiz-adv-x="966" 
d="M892 500h-826v95h826v-95zM892 200h-826v95h826v-95z" />
    <glyph glyph-name="bracketleft" unicode="[" horiz-adv-x="604" 
d="M610 -424h-387v1893h387v-165h-216v-1562h216v-166z" />
    <glyph glyph-name="bracketright" unicode="]" horiz-adv-x="604" 
d="M218 1468h387v-1893h-387v165h216v1562h-216v166z" />
    <glyph glyph-name="braceleft" unicode="{" horiz-adv-x="981" 
d="M832 -320q-152 27 -249 129q-103 107 -103 257q0 61 26 177q19 85 19 112q0 97 -72 163q-67 62 -166 73v38q239 52 239 219q0 47 -16 122q-27 126 -27 188q0 151 101 257q96 102 248 127v-40q-94 -14 -155 -73q-67 -64 -67 -155q0 -46 13 -115q30 -160 30 -210
q0 -224 -286 -336q283 -116 283 -350q0 -49 -27 -179q-17 -82 -17 -135q0 -180 226 -233v-36z" />
    <glyph glyph-name="braceright" unicode="}" horiz-adv-x="981" 
d="M695 593q-239 -52 -239 -220q0 -52 15 -122q28 -131 28 -187q0 -151 -101 -257q-96 -102 -248 -127v40q94 14 155 73q66 63 66 155q0 48 -12 114q-30 164 -30 211q0 223 285 336q-282 116 -282 349q0 55 26 180q18 87 18 135q0 180 -226 233v36q152 -28 249 -129
q103 -106 103 -257q0 -57 -27 -177q-18 -80 -18 -113q0 -97 73 -162q64 -58 165 -74v-37z" />
    <glyph glyph-name="guillemotleft" unicode="&#xab;" horiz-adv-x="813" 
d="M151 420q0 73 85 221q65 113 136 203h118q-209 -312 -209 -431t209 -417h-118q-82 105 -145 218q-76 136 -76 206zM471 420q0 73 85 221q65 113 136 203h118q-209 -312 -209 -431t209 -417h-118q-83 107 -145 218q-76 136 -76 206z" />
    <glyph glyph-name="guillemotright" unicode="&#xbb;" horiz-adv-x="813" 
d="M809 420q0 -72 -85 -221q-67 -118 -136 -203h-118q209 313 209 431q0 119 -209 417h118q221 -286 221 -424zM489 420q0 -73 -85 -221q-65 -113 -136 -203h-118q209 310 209 431q0 124 -209 417h118q82 -105 145 -218q76 -136 76 -206z" />
    <glyph glyph-name="multiply" unicode="&#xd7;" horiz-adv-x="946" 
d="M802 219l-58 -57l-277 275l-277 -275l-59 57l275 278l-275 278l62 56l274 -276l277 276l58 -56l-279 -278z" />
    <glyph glyph-name="divide" unicode="&#xf7;" horiz-adv-x="968" 
d="M892 350h-826v95h826v-95zM456 550q-61 0 -104.5 43.5t-43.5 104.5q0 62 43 105t105 43t105 -43t43 -105t-43 -105t-105 -43zM456 -50q-62 0 -105 43t-43 105q0 61 43.5 104.5t104.5 43.5q62 0 105 -43t43 -105t-43 -105t-105 -43z" />
    <glyph glyph-name="zeronojoin" unicode="&#x200c;" horiz-adv-x="34" 
 />
    <glyph glyph-name="zerojoin" unicode="&#x200d;" horiz-adv-x="34" 
 />
    <glyph glyph-name="lefttoright" unicode="&#x200e;" horiz-adv-x="34" 
d="M228 1213l-101 -103l-26 21l67 67h-134v-1198h-34v1230h163l-62 62l26 24z" />
    <glyph glyph-name="righttoleft" unicode="&#x200f;" horiz-adv-x="34" 
d="M34 0h-34v1198h-133l64 -67l-21 -21l-106 103l106 103l21 -24l-62 -62h165v-1230z" />
    <glyph glyph-name="quoteleft" unicode="&#x2018;" horiz-adv-x="491" 
d="M467 1486q-89 -59 -154 -145q-76 -101 -76 -193q0 -55 32 -98q39 47 90 47q102 0 102 -100q0 -59 -48 -92q-43 -30 -104 -30q-82 0 -133 50.5t-51 132.5q0 141 108 283q97 127 234 200v-55z" />
    <glyph glyph-name="quoteright" unicode="&#x2019;" horiz-adv-x="491" 
d="M444 1353q0 -143 -107 -281q-91 -118 -232 -200v56q228 162 228 338q0 62 -33 101q-33 -49 -95 -49q-41 0 -69.5 28t-28.5 69q0 58 49 93q43 31 104 31q86 0 135 -50t49 -136z" />
    <glyph glyph-name="quotedblleft" unicode="&#x201c;" horiz-adv-x="650" 
d="M572 1146q-13 -6 -41 -26q-52 -51 -52 -95q82 -22 82 -112q0 -45 -31.5 -78t-76.5 -33q-52 0 -84 42q-29 38 -29 92q0 201 203 359q0 -83 1 -93q4 -40 28 -56zM302 1146q-13 -6 -41 -26q-52 -51 -52 -95q82 -22 82 -112q0 -45 -31.5 -78t-76.5 -33q-52 0 -84 42
q-29 38 -29 92q0 201 203 359q0 -83 1 -93q4 -40 28 -56z" />
    <glyph glyph-name="quotedblright" unicode="&#x201d;" horiz-adv-x="650" 
d="M580 1151q0 -201 -203 -359q0 83 -1 93q-4 40 -28 56q13 6 41 26q52 51 52 95q-82 22 -82 112q0 46 31 78.5t77 32.5q54 0 85 -41q28 -37 28 -93zM310 1151q0 -201 -203 -359q0 83 -1 93q-4 40 -28 56q13 6 41 26q52 51 52 95q-82 22 -82 112q0 46 31 78.5t77 32.5
q54 0 85 -41q28 -37 28 -93z" />
    <glyph glyph-name="guilsinglleft" unicode="&#x2039;" horiz-adv-x="512" 
d="M457 966l-228 -382l222 -380v-75l-383 455l389 457v-75z" />
    <glyph glyph-name="guilsinglright" unicode="&#x203a;" horiz-adv-x="512" 
d="M457 586l-393 -457v75l231 382l-222 381v77z" />
    <glyph glyph-name="u060C" unicode="&#x60c;" horiz-adv-x="474" 
d="M471 142q0 -61 -49 -102q-45 -39 -108 -39q-84 0 -127 75q-36 61 -36 151q0 122 90 249q69 98 120 124l83 -46q-175 -140 -175 -276q30 12 61 12q64 0 102.5 -42t38.5 -106z" />
    <glyph glyph-name="u061B" unicode="&#x61b;" horiz-adv-x="474" 
d="M463 153q0 -62 -44 -106t-106 -44t-106 44t-44 106q0 63 43.5 106.5t106.5 43.5q62 0 106 -44t44 -106zM471 652q0 -61 -49 -102q-45 -39 -108 -39q-84 0 -127 75q-36 61 -36 151q0 122 90 249q70 99 120 124l83 -46q-175 -140 -175 -276q31 11 61 11q64 0 102.5 -41.5
t38.5 -105.5z" />
    <glyph glyph-name="u061F" unicode="&#x61f;" horiz-adv-x="765" 
d="M770 1190l-92 -203q-70 28 -152 28q-181 0 -181 -120q0 -48 90 -126q47 -39 166 -145q89 -81 89 -159q0 -108 -69 -180l-156 81q60 49 60 104q0 45 -90 116q-135 107 -168 143q-90 100 -90 219q0 135 105 224q99 84 236 84q148 0 252 -66zM692 1q0 -60 -41.5 -101
t-101.5 -41q-59 0 -101 41.5t-42 100.5t42 101t101 42t101 -42t42 -101z" />
    <glyph glyph-name="u0640" unicode="&#x640;" horiz-adv-x="829" 
d="M860 1h-890v274h890v-274z" />
    <glyph glyph-name="u064B" unicode="&#x64b;" 
d="M458 1654l-312 -125v79l312 128v-82zM458 1489l-312 -125v80l312 127v-82z" />
    <glyph glyph-name="u064C" unicode="&#x64c;" 
d="M454 1608q2 -11 2 -22q0 -25 -8 -48l-63 20q-38 -141 -170 -193q-2 9 1 74q2 50 -11 73q-20 -13 -65 -40l-6 88l85 44q29 -34 29 -132q49 15 93 103q-113 60 -113 85q0 52 38 104q40 57 90 57q63 0 63 -98q0 -41 -12 -98q8 -2 47 -17zM371 1712q0 49 -32 49
q-35 0 -57 -65q17 -16 75 -55q14 35 14 71z" />
    <glyph glyph-name="u064D" unicode="&#x64d;" 
d="M452 -753l-313 -125v79l313 128v-82zM452 -918l-313 -125v79l313 128v-82z" />
    <glyph glyph-name="u064E" unicode="&#x64e;" 
d="M458 1524l-312 -125v79l312 128v-82z" />
    <glyph glyph-name="u064F" unicode="&#x64f;" 
d="M441 1505q-28 10 -75 25l-5 -6q-44 -53 -80 -81q-60 -47 -150 -76v82q120 30 179 100q-109 58 -109 71q0 49 45 110q50 68 108 68q63 0 63 -101q0 -41 -23 -102q31 -13 47 -16v-74zM365 1675q0 19 -13 38t-31 19q-37 0 -66 -71q43 -35 95 -55q15 41 15 69z" />
    <glyph glyph-name="u0650" unicode="&#x650;" 
d="M452 -766l-313 -125v79l313 128v-82z" />
    <glyph glyph-name="u0651" unicode="&#x651;" 
d="M461 1540q0 -128 -78 -128q-49 0 -62 58q-21 -101 -91 -101q-56 0 -72 62q-7 27 -5 108q9 3 48 20q5 -112 34 -112q36 0 46 56q2 38 5 76l50 14q6 -101 40 -101q27 0 31 45q-1 11 -2 85l47 15q9 -57 9 -97z" />
    <glyph glyph-name="u0652" unicode="&#x652;" 
d="M424 1492q0 -119 -142 -119q-41 0 -72 25q-34 26 -34 66q0 85 101 211q147 -60 147 -183zM374 1478q-11 72 -98 110q-45 -57 -45 -97q0 -16 22 -29q19 -11 37 -11q46 0 84 27z" />
    <glyph glyph-name="uE820" unicode="&#xe820;" 
d="M467 1096l-312 -125v79l312 128v-82z" />
    <glyph glyph-name="uE821" unicode="&#xe821;" 
d="M458 1116q-28 10 -75 25l-5 -6q-44 -53 -80 -81q-60 -47 -150 -76v82q120 30 179 100q-109 58 -109 71q0 49 45 110q50 68 108 68q63 0 63 -101q0 -41 -23 -102q31 -13 47 -16v-74zM382 1286q0 19 -13 38t-31 19q-37 0 -66 -71q43 -35 95 -55q15 41 15 69z" />
    <glyph glyph-name="uE822" unicode="&#xe822;" 
d="M398 1086q0 -119 -142 -119q-41 0 -72 25q-34 26 -34 66q0 85 101 211q147 -60 147 -183zM348 1072q-11 72 -98 110q-45 -57 -45 -97q0 -16 22 -29q19 -11 37 -11q46 0 84 27z" />
    <glyph glyph-name="uE823" unicode="&#xe823;" 
d="M449 1243l-312 -125v79l312 128v-82zM449 1078l-312 -125v80l312 127v-82z" />
    <glyph glyph-name="uE824" unicode="&#xe824;" 
d="M506 1214q2 -11 2 -22q0 -25 -8 -48l-63 20q-38 -141 -170 -193q-2 9 1 74q2 50 -11 73q-20 -13 -65 -40l-6 88l85 44q29 -34 29 -132q49 15 93 103q-113 60 -113 85q0 52 38 104q40 57 90 57q63 0 63 -98q0 -41 -12 -98q8 -2 47 -17zM423 1318q0 49 -32 49
q-35 0 -57 -65q17 -16 75 -55q14 35 14 71z" />
    <glyph glyph-name="uE825" unicode="&#xe825;" 
d="M461 1116q0 -128 -78 -128q-49 0 -62 58q-21 -101 -91 -101q-56 0 -72 62q-7 27 -5 108q9 3 48 20q5 -112 34 -112q36 0 46 56q2 38 5 76l50 14q6 -101 40 -101q27 0 31 45q-1 11 -2 85l47 15q9 -57 9 -97z" />
    <glyph glyph-name="uE826" unicode="&#xe826;" 
d="M360 -407l-313 -125v79l313 128v-82z" />
    <glyph glyph-name="uE827" unicode="&#xe827;" 
d="M330 -451l-313 -125v79l313 128v-82zM330 -616l-313 -125v79l313 128v-82z" />
    <glyph glyph-name="uE828" unicode="&#xe828;" 
d="M412 1097q0 -128 -78 -128q-49 0 -62 58q-21 -101 -91 -101q-56 0 -72 62q-7 27 -5 108q9 3 48 20q5 -112 34 -112q36 0 46 56q2 38 5 76l50 14q6 -101 40 -101q27 0 31 45q-1 11 -2 85l47 15q9 -57 9 -97zM409 1293l-312 -125v79l312 128v-82z" />
    <glyph glyph-name="uE829" unicode="&#xe829;" 
d="M404 1100q0 -128 -78 -128q-49 0 -62 58q-21 -101 -91 -101q-56 0 -72 62q-7 27 -5 108q9 3 48 20q5 -112 34 -112q36 0 46 56q2 38 5 76l50 14q6 -101 40 -101q27 0 31 45q-1 11 -2 85l47 15q9 -57 9 -97zM408 1310q-28 10 -75 25l-5 -6q-44 -53 -80 -81
q-60 -47 -150 -76v82q120 30 179 100q-109 58 -109 71q0 49 45 110q50 68 108 68q63 0 63 -101q0 -41 -23 -102q31 -13 47 -16v-74zM332 1480q0 19 -13 38t-31 19q-37 0 -66 -71q43 -35 95 -55q15 41 15 69z" />
    <glyph glyph-name="uE82A" unicode="&#xe82a;" 
d="M408 1069q0 -128 -78 -128q-49 0 -62 58q-21 -101 -91 -101q-56 0 -72 62q-7 27 -5 108q9 3 48 20q5 -112 34 -112q36 0 46 56q2 38 5 76l50 14q6 -101 40 -101q27 0 31 45q-1 11 -2 85l47 15q9 -57 9 -97zM403 1418l-312 -125v79l312 128v-82zM403 1253l-312 -125v80
l312 127v-82z" />
    <glyph glyph-name="uE82B" unicode="&#xe82b;" 
d="M415 1070q0 -128 -78 -128q-49 0 -62 58q-21 -101 -91 -101q-56 0 -72 62q-7 27 -5 108q9 3 48 20q5 -112 34 -112q36 0 46 56q2 38 5 76l50 14q6 -101 40 -101q27 0 31 45q-1 11 -2 85l47 15q9 -57 9 -97zM412 1389q2 -11 2 -22q0 -25 -8 -48l-63 20q-38 -141 -170 -193
q-2 9 1 74q2 50 -11 73q-20 -13 -65 -40l-6 88l85 44q29 -34 29 -132q49 15 93 103q-113 60 -113 85q0 52 38 104q40 57 90 57q63 0 63 -98q0 -41 -12 -98q8 -2 47 -17zM329 1493q0 49 -32 49q-35 0 -57 -65q17 -16 75 -55q14 35 14 71z" />
    <glyph glyph-name="uE82C" unicode="&#xe82c;" 
d="M402 1270q0 -128 -78 -128q-49 0 -62 58q-21 -101 -91 -101q-56 0 -72 62q-7 27 -5 108q9 3 48 20q5 -112 34 -112q36 0 46 56q2 38 5 76l50 14q6 -101 40 -101q27 0 31 45q-1 11 -2 85l47 15q9 -57 9 -97zM414 957l-313 -125v79l313 128v-82z" />
    <glyph glyph-name="uE82D" unicode="&#xe82d;" 
d="M402 1414q0 -128 -78 -128q-49 0 -62 58q-21 -101 -91 -101q-56 0 -72 62q-7 27 -5 108q9 3 48 20q5 -112 34 -112q36 0 46 56q2 38 5 76l50 14q6 -101 40 -101q27 0 31 45q-1 11 -2 85l47 15q9 -57 9 -97zM407 1126l-313 -125v79l313 128v-82zM407 961l-313 -125v79
l313 128v-82z" />
    <glyph glyph-name="u0621" unicode="&#x621;" horiz-adv-x="734" 
d="M732 340q1 -5 1 -13q0 -41 -31 -151q-231 -38 -550 -188v122q31 19 146 82q-114 59 -114 160q0 69 112 182q118 120 214 120q69 0 179 -72l-109 -138q-84 50 -126 50q-81 0 -146 -80q58 -131 191 -131q22 0 84 18q85 25 149 39z" />
    <glyph glyph-name="periodcentered" unicode="&#xb7;" horiz-adv-x="405" 
d="M326 768q0 -50 -35.5 -85t-85.5 -35q-49 0 -84.5 35.5t-35.5 84.5t34.5 85t83.5 36q51 0 87 -35t36 -86z" />
    <glyph glyph-name="periodcentered" unicode="&#x2219;" horiz-adv-x="405" 
d="M326 768q0 -50 -35.5 -85t-85.5 -35q-49 0 -84.5 35.5t-35.5 84.5t34.5 85t83.5 36q51 0 87 -35t36 -86z" />
    <glyph glyph-name="periodcentered" unicode="&#x2d9;" horiz-adv-x="405" 
d="M326 768q0 -50 -35.5 -85t-85.5 -35q-49 0 -84.5 35.5t-35.5 84.5t34.5 85t83.5 36q51 0 87 -35t36 -86z" />
  </font>
</defs>
</svg>
